<?xml version="1.0" encoding="UTF-8" standalone="no"?>
<!-- Generator: Adobe Illustrator 19.0.0, SVG Export Plug-In . SVG Version: 6.00 Build 0)  -->

<svg
   xmlns:dc="http://purl.org/dc/elements/1.1/"
   xmlns:cc="http://creativecommons.org/ns#"
   xmlns:rdf="http://www.w3.org/1999/02/22-rdf-syntax-ns#"
   xmlns:svg="http://www.w3.org/2000/svg"
   xmlns="http://www.w3.org/2000/svg"
   xmlns:sodipodi="http://sodipodi.sourceforge.net/DTD/sodipodi-0.dtd"
   xmlns:inkscape="http://www.inkscape.org/namespaces/inkscape"
   version="1.1"
   id="Layer_1"
   x="0px"
   y="0px"
   viewBox="0 0 286.054 286.054"
   style="enable-background:new 0 0 286.054 286.054;"
   xml:space="preserve"
   sodipodi:docname="cancel (1).svg"
   inkscape:version="0.92.4 (5da689c313, 2019-01-14)"><metadata
   id="metadata41"><rdf:RDF><cc:Work
       rdf:about=""><dc:format>image/svg+xml</dc:format><dc:type
         rdf:resource="http://purl.org/dc/dcmitype/StillImage" /></cc:Work></rdf:RDF></metadata><defs
   id="defs39" /><sodipodi:namedview
   pagecolor="#ffffff"
   bordercolor="#666666"
   borderopacity="1"
   objecttolerance="10"
   gridtolerance="10"
   guidetolerance="10"
   inkscape:pageopacity="0"
   inkscape:pageshadow="2"
   inkscape:window-width="1920"
   inkscape:window-height="1057"
   id="namedview37"
   showgrid="false"
   inkscape:zoom="1.6500382"
   inkscape:cx="48.536632"
   inkscape:cy="125.73267"
   inkscape:window-x="-8"
   inkscape:window-y="-8"
   inkscape:window-maximized="1"
   inkscape:current-layer="Layer_1" />
<g
   id="g4"
   transform="matrix(1.3982694,0,0,1.3982694,-57.004325,-56.951182)">
	<path
   style="fill:#e2574c"
   d="m 168.352,142.924 25.28,-25.28 c 3.495,-3.504 3.495,-9.154 0,-12.64 l -12.64,-12.649 c -3.495,-3.486 -9.145,-3.495 -12.64,0 l -25.289,25.289 -25.271,-25.271 c -3.504,-3.504 -9.163,-3.504 -12.658,-0.018 l -12.64,12.649 c -3.495,3.486 -3.486,9.154 0.018,12.649 l 25.271,25.271 -25.227,25.226 c -3.495,3.495 -3.495,9.145 0,12.64 l 12.64,12.649 c 3.495,3.486 9.145,3.495 12.64,0 l 25.226,-25.226 25.405,25.414 c 3.504,3.504 9.163,3.504 12.658,0.009 l 12.64,-12.64 c 3.495,-3.495 3.486,-9.154 -0.009,-12.658 z"
   id="path2"
   inkscape:connector-curvature="0"
   sodipodi:nodetypes="ccccscscccccccsccsscc" />
</g>
<g
   id="g6">
</g>
<g
   id="g8">
</g>
<g
   id="g10">
</g>
<g
   id="g12">
</g>
<g
   id="g14">
</g>
<g
   id="g16">
</g>
<g
   id="g18">
</g>
<g
   id="g20">
</g>
<g
   id="g22">
</g>
<g
   id="g24">
</g>
<g
   id="g26">
</g>
<g
   id="g28">
</g>
<g
   id="g30">
</g>
<g
   id="g32">
</g>
<g
   id="g34">
</g>
<path
   inkscape:connector-curvature="0"
   id="path2-6"
   d="M 144.23909,0.61053994 C 65.243091,0.61053994 1.2120911,64.642539 1.2120911,143.62854 c 0,78.996 64.0309999,143.027 143.0269989,143.027 78.996,0 143.027,-64.031 143.027,-143.027 0,-78.977001 -64.032,-143.01800006 -143.027,-143.01800006 z m 0,259.22800006 c -64.182999,0 -116.208999,-52.026 -116.208999,-116.209 0,-64.183 52.026,-116.21 116.208999,-116.21 64.183,0 116.209,52.026 116.209,116.209 0,64.183 -52.026,116.21 -116.209,116.21 z"
   style="fill:#e2574c"
   sodipodi:nodetypes="ssssssssss" /></svg>