<?xml version="1.0" encoding="iso-8859-1"?>
<!-- Generator: Adobe Illustrator 19.0.0, SVG Export Plug-In . SVG Version: 6.00 Build 0)  -->
<svg version="1.1" id="Capa_1" xmlns="http://www.w3.org/2000/svg" xmlns:xlink="http://www.w3.org/1999/xlink" x="0px" y="0px"
	 viewBox="0 0 460 460" style="enable-background:new 0 0 460 460;" xml:space="preserve">
<polygon style="fill:#E5C439;" points="230,96.7 80,155.9 80,225.1 80,333.9 230,393.1 380,333.9 380,155.9 "/>
<polygon style="fill:#AD6721;" points="77.6,154.3 233.2,221.5 382,157.1 228.8,96.7 "/>
<g>
	<polygon style="fill:#CE9F36;" points="230,97.1 305.2,66.7 440.8,126.7 382,157.1 448.4,184.7 301.2,255.1 230,219.9 375.2,153.5 
			"/>
	<polygon style="fill:#CE9F36;" points="227.6,97.1 152.4,66.7 16.8,126.7 75.6,157.1 9.2,184.7 156.4,255.1 227.6,219.9 
		82.4,153.5 	"/>
</g>
<path style="fill:#562B00;" d="M456,179.5l-59.6-23.6l50.4-23.2c2.4-1.2,4-3.6,4-6c0-2.8-1.6-5.2-4-6.4L305.6,60.7
	c-1.6-0.8-3.2-0.8-4.8,0l-71.2,28.8l-70.4-26.4c-1.6-0.8-3.6-0.4-4.8,0L12.8,122.3c-2.4,1.2-4,3.6-4,6.4c0,2.8,1.6,5.2,4,6l50,21.2
	L4,181.5c-2.4,1.2-4,3.6-4,6c0,2.8,1.6,5.2,4,6l69.6,30.8c0,0,0,0,0,0.4v109.2c0,2.8,1.6,5.2,4.4,6.4l149.6,59.2l0,0l0,0
	c0.8,0.4,1.6,0.4,2.4,0.4s1.6,0,2.4-0.4l0,0l0,0L382,340.3c2.4-1.2,4.4-3.6,4.4-6.4V222.7l69.6-30.8c2.4-1.2,4-3.6,4-6
	C460,183.1,458.4,180.3,456,179.5z M303.2,73.9l124,52.4l-47.6,22L248,96.3L303.2,73.9z M230,212.3L96,156.7l134-52.8l132.8,52.4
	L230,212.3z M32.8,128.7l124-52.4l54.4,20.4L80,148.3L32.8,128.7z M78.4,163.9l136,56.4l-54,28.4L23.2,187.9L78.4,163.9z
	 M86.8,230.7l71.2,31.6c0.8,0.4,1.6,0.4,2.8,0.4s2-0.4,3.2-0.8l59.6-31.6v152.4L86.8,329.1V230.7z M373.2,329.1l-136.4,54v-152
	l59.6,28.8c0.8,0.4,2,0.8,3.2,0.8c0.8,0,2,0,2.8-0.4l71.2-31.6v100.4H373.2z M299.6,246.7l-54-26.4l134.8-56.8l56.4,22L299.6,246.7z
	"/>
<g>
</g>
<g>
</g>
<g>
</g>
<g>
</g>
<g>
</g>
<g>
</g>
<g>
</g>
<g>
</g>
<g>
</g>
<g>
</g>
<g>
</g>
<g>
</g>
<g>
</g>
<g>
</g>
<g>
</g>
</svg>
