<?xml version="1.0" encoding="iso-8859-1"?>
<!-- Generator: Adobe Illustrator 19.0.0, SVG Export Plug-In . SVG Version: 6.00 Build 0)  -->
<svg version="1.1" id="Capa_1" xmlns="http://www.w3.org/2000/svg" xmlns:xlink="http://www.w3.org/1999/xlink" x="0px" y="0px"
	 viewBox="0 0 412.5 412.5" style="enable-background:new 0 0 412.5 412.5;" xml:space="preserve">
<polygon style="fill:#E5C439;" points="14.65,296.5 14.65,124.5 205.85,7.3 397.05,116.9 397.05,285.7 205.85,405.7 "/>
<path style="fill:#562B00;" d="M403.45,116.1c0-1.2,0-2.4-0.8-3.6c-1.2-2-3.2-2.8-5.2-3.2l-188-108.4c-2-1.2-4.8-1.2-6.8,0
	l-191.2,118c-2,1.2-3.2,3.2-3.2,5.6v171.6c0,2.4,1.2,4.8,3.2,6l191.2,109.6h0.4c0,0,0.4,0,0.4,0.4c0.8,0.4,1.6,0.4,2.4,0.4
	s1.6,0,2.4-0.4c0.4,0,0.4,0,0.8-0.4c0.4,0,0.4,0,0.8-0.4l191.2-120.4c2-1.2,3.2-3.2,3.2-5.6V116.9
	C403.45,116.9,403.45,116.5,403.45,116.1z M205.85,14.9l177.2,102l-82.4,51.6l-181.6-100L205.85,14.9z M205.85,228.5L26.25,125.7
	l79.6-49.2l182,100.4L205.85,228.5z M21.45,138.5l177.6,101.6v154L21.45,292.5V138.5z M212.65,393.7V240.1l177.6-111.6v153.6
	L212.65,393.7z"/>
<g>
</g>
<g>
</g>
<g>
</g>
<g>
</g>
<g>
</g>
<g>
</g>
<g>
</g>
<g>
</g>
<g>
</g>
<g>
</g>
<g>
</g>
<g>
</g>
<g>
</g>
<g>
</g>
<g>
</g>
</svg>
