<?xml version="1.0" encoding="UTF-8" standalone="no"?>
<svg
   xmlns:dc="http://purl.org/dc/elements/1.1/"
   xmlns:cc="http://creativecommons.org/ns#"
   xmlns:rdf="http://www.w3.org/1999/02/22-rdf-syntax-ns#"
   xmlns:svg="http://www.w3.org/2000/svg"
   xmlns="http://www.w3.org/2000/svg"
   xmlns:sodipodi="http://sodipodi.sourceforge.net/DTD/sodipodi-0.dtd"
   xmlns:inkscape="http://www.inkscape.org/namespaces/inkscape"
   height="477.60001pt"
   viewBox="0 0 477.60001 477.60001"
   width="477.60001pt"
   version="1.1"
   id="svg38"
   sodipodi:docname="EFRaised.svg"
   inkscape:version="0.92.4 (5da689c313, 2019-01-14)">
  <metadata
     id="metadata44">
    <rdf:RDF>
      <cc:Work
         rdf:about="">
        <dc:format>image/svg+xml</dc:format>
        <dc:type
           rdf:resource="http://purl.org/dc/dcmitype/StillImage" />
        <dc:title />
      </cc:Work>
    </rdf:RDF>
  </metadata>
  <defs
     id="defs42" />
  <sodipodi:namedview
     pagecolor="#ffffff"
     bordercolor="#666666"
     borderopacity="1"
     objecttolerance="10"
     gridtolerance="10"
     guidetolerance="10"
     inkscape:pageopacity="0"
     inkscape:pageshadow="2"
     inkscape:window-width="1920"
     inkscape:window-height="1057"
     id="namedview40"
     showgrid="false"
     inkscape:zoom="1.0482236"
     inkscape:cx="225.30664"
     inkscape:cy="288.50863"
     inkscape:window-x="-8"
     inkscape:window-y="-8"
     inkscape:window-maximized="1"
     inkscape:current-layer="svg38" />
  <path
     d="m477.601562 238.800781c0 131.886719-106.914062 238.800781-238.800781 238.800781s-238.800781-106.914062-238.800781-238.800781 106.914062-238.800781 238.800781-238.800781 238.800781 106.914062 238.800781 238.800781zm0 0"
     fill="#382b73"
     id="path2"
     style="fill:#aa0000" />
  <path
     d="m445.398438 238.800781c0 114.101563-92.496094 206.597657-206.597657 206.597657-114.101562 0-206.597656-92.496094-206.597656-206.597657 0-114.101562 92.496094-206.597656 206.597656-206.597656 114.101563 0 206.597657 92.496094 206.597657 206.597656zm0 0"
     id="path4"
     fill="#473080"
     style="fill:#ff0000" />
  <g
     id="g879"
     transform="matrix(4.6000435,0,0,4.6000435,-851.00436,-825.62701)"
     style="fill:#ffffff">
    <path
       id="path26"
       d="m 223.32382,264.97849 c -0.18359,1.62109 1.83203,2.875 3.22657,1.61328 l 32.83203,-29.76953 c 0.99218,-0.89844 1.36328,-2.07812 1.25781,-3.19922 v -6.16015 c -0.11719,-1.89063 -1.60547,-3.65235 -3.85156,-3.65235 h -9.82422 l 8.73828,-17.53515 c 0.32422,-0.65235 0.44141,-1.33594 0.39844,-1.98829 v -6.16406 c -0.0781,-1.96875 -1.67188,-3.72265 -3.85938,-3.72265 h -17.58984 c -1.46485,0 -2.80469,0.82812 -3.45703,2.14062 l -17.78125,35.66797 c -0.32813,0.65625 -0.44532,1.33594 -0.39844,1.99219 v 6.16015 c 0.0742,1.97266 1.67187,3.72266 3.85547,3.72266 h 13.59375 l -6.94141,13.92578 c -0.13672,0.27344 -0.1875,0.54297 -0.19922,0.80469 z m 0,0"
       style="fill:#554400;stroke-width:1"
       inkscape:connector-curvature="0" />
    <path
       id="path28"
       d="m 256.78867,223.80662 h -9.83594 c -1.4375,0 -2.37109,-1.51172 -1.73047,-2.79297 l 10.47656,-21.02344 c 1.28125,-2.57031 -0.58593,-5.58984 -3.45703,-5.58984 h -17.59375 c -1.46484,0 -2.80469,0.82812 -3.45703,2.14062 l -17.78125,35.66797 c -1.27734,2.57031 0.58984,5.58984 3.46094,5.58984 h 13.60547 c 1.43359,0 2.36718,1.51172 1.72656,2.79297 l -8.67969,17.41797 c -0.95703,1.91406 1.44141,3.73047 3.02735,2.29297 l 32.83203,-29.76953 c 2.61718,-2.37109 0.9375,-6.72656 -2.59375,-6.72656 z m 0,0"
       style="fill:#ffff00;stroke-width:1"
       inkscape:connector-curvature="0" />
  </g>
</svg>
