<?xml version="1.0" encoding="UTF-8" standalone="no"?>
<!-- Generator: Adobe Illustrator 18.0.0, SVG Export Plug-In . SVG Version: 6.00 Build 0)  -->

<svg
   xmlns:dc="http://purl.org/dc/elements/1.1/"
   xmlns:cc="http://creativecommons.org/ns#"
   xmlns:rdf="http://www.w3.org/1999/02/22-rdf-syntax-ns#"
   xmlns:svg="http://www.w3.org/2000/svg"
   xmlns="http://www.w3.org/2000/svg"
   xmlns:sodipodi="http://sodipodi.sourceforge.net/DTD/sodipodi-0.dtd"
   xmlns:inkscape="http://www.inkscape.org/namespaces/inkscape"
   version="1.1"
   id="Capa_1"
   x="0px"
   y="0px"
   viewBox="0 0 38.499951 38.998421"
   xml:space="preserve"
   sodipodi:docname="AcknowledgeAll.svg"
   inkscape:version="0.92.4 (5da689c313, 2019-01-14)"
   width="38.49995"
   height="38.998421"><metadata
   id="metadata71"><rdf:RDF><cc:Work
       rdf:about=""><dc:format>image/svg+xml</dc:format><dc:type
         rdf:resource="http://purl.org/dc/dcmitype/StillImage" /><dc:title></dc:title></cc:Work></rdf:RDF></metadata><defs
   id="defs69">
	
	

		
		
		
		
		
		
		
	</defs><sodipodi:namedview
   pagecolor="#ffffff"
   bordercolor="#666666"
   borderopacity="1"
   objecttolerance="10"
   gridtolerance="10"
   guidetolerance="10"
   inkscape:pageopacity="0"
   inkscape:pageshadow="2"
   inkscape:window-width="1920"
   inkscape:window-height="1057"
   id="namedview67"
   showgrid="false"
   inkscape:zoom="8.584784"
   inkscape:cx="74.082071"
   inkscape:cy="20.464687"
   inkscape:window-x="-8"
   inkscape:window-y="-8"
   inkscape:window-maximized="1"
   inkscape:current-layer="Capa_1"
   fit-margin-top="0"
   fit-margin-left="0"
   fit-margin-right="0"
   fit-margin-bottom="0" />
<g
   id="g53"
   style="fill:#00ffff"
   transform="translate(-8.5857661,-7.6595191)"><path
     inkscape:connector-curvature="0"
     id="path4"
     d="M 46.085717,14.65894 H 28.085716 c -0.552,0 -1,-0.447 -1,-1 0,-0.553 0.448,-1 1,-1 h 18.000001 c 0.552,0 1,0.447 1,1 0,0.553 -0.448,1 -1,1 z"
     style="fill:#00ffff" /><path
     inkscape:connector-curvature="0"
     id="path6"
     d="M 46.085717,28.65894 H 28.085716 c -0.552,0 -1,-0.447 -1,-1 0,-0.553 0.448,-1 1,-1 h 18.000001 c 0.552,0 1,0.447 1,1 0,0.553 -0.448,1 -1,1 z"
     style="fill:#00ffff" /><path
     inkscape:connector-curvature="0"
     id="path8"
     d="M 46.085717,42.65894 H 28.085716 c -0.552,0 -1,-0.447 -1,-1 0,-0.553 0.448,-1 1,-1 h 18.000001 c 0.552,0 1,0.447 1,1 0,0.553 -0.448,1 -1,1 z"
     style="fill:#00ffff" /><path
     inkscape:connector-curvature="0"
     id="path10"
     d="m 14.156717,17.65894 c -0.209,0 -0.42,-0.065 -0.6,-0.2 l -4.5710005,-3.429 c -0.442,-0.331 -0.531,-0.958 -0.2,-1.399 0.331,-0.441 0.958,-0.531 1.4000005,-0.2 l 3.821999,2.866 6.248,-7.2880004 c 0.359,-0.42 0.991,-0.468 1.41,-0.108 0.419,0.359 0.468,0.99 0.108,1.409 L 14.916717,17.30994 c -0.198,0.23 -0.478,0.349 -0.76,0.349 z"
     style="fill:#00ffff" /><path
     inkscape:connector-curvature="0"
     id="path12"
     d="m 14.156717,31.65894 c -0.209,0 -0.42,-0.065 -0.6,-0.2 l -4.5710005,-3.429 c -0.442,-0.331 -0.531,-0.958 -0.2,-1.399 0.331,-0.441 0.958,-0.531 1.4000005,-0.2 l 3.821999,2.866 6.248,-7.288 c 0.359,-0.42 0.991,-0.468 1.41,-0.108 0.419,0.359 0.468,0.99 0.108,1.409 l -6.856999,8 c -0.198,0.23 -0.478,0.349 -0.76,0.349 z"
     style="fill:#00ffff" /><path
     inkscape:connector-curvature="0"
     id="path14"
     d="m 14.156717,46.65794 c -0.209,0 -0.42,-0.065 -0.6,-0.2 l -4.5710005,-3.429 c -0.442,-0.331 -0.531,-0.958 -0.2,-1.399 0.331,-0.441 0.958,-0.531 1.4000005,-0.2 l 3.821999,2.866 6.248,-7.287 c 0.359,-0.421 0.991,-0.469 1.41,-0.108 0.419,0.359 0.468,0.99 0.108,1.409 l -6.856999,7.999 c -0.198,0.23 -0.478,0.349 -0.76,0.349 z"
     style="fill:#00ffff" /></g><g
   id="g32"
   transform="translate(-6.8560496,-7.0005795)">
		
		
		
			
		
		
		
			
		
	</g>
<g
   id="g36"
   transform="translate(-8.5857661,-7.6595191)">
</g>
<g
   id="g38"
   transform="translate(-8.5857661,-7.6595191)">
</g>
<g
   id="g40"
   transform="translate(-8.5857661,-7.6595191)">
</g>
<g
   id="g42"
   transform="translate(-8.5857661,-7.6595191)">
</g>
<g
   id="g44"
   transform="translate(-8.5857661,-7.6595191)">
</g>
<g
   id="g46"
   transform="translate(-8.5857661,-7.6595191)">
</g>
<g
   id="g48"
   transform="translate(-8.5857661,-7.6595191)">
</g>
<g
   id="g50"
   transform="translate(-8.5857661,-7.6595191)">
</g>
<g
   id="g52"
   transform="translate(-8.5857661,-7.6595191)">
</g>
<g
   id="g54"
   transform="translate(-8.5857661,-7.6595191)">
</g>
<g
   id="g56"
   transform="translate(-8.5857661,-7.6595191)">
</g>
<g
   id="g58"
   transform="translate(-8.5857661,-7.6595191)">
</g>
<g
   id="g60"
   transform="translate(-8.5857661,-7.6595191)">
</g>
<g
   id="g62"
   transform="translate(-8.5857661,-7.6595191)">
</g>
<g
   id="g64"
   transform="translate(-8.5857661,-7.6595191)">
</g>
</svg>