<?xml version="1.0" encoding="UTF-8" standalone="no"?>
<svg
   xmlns:osb="http://www.openswatchbook.org/uri/2009/osb"
   xmlns:dc="http://purl.org/dc/elements/1.1/"
   xmlns:cc="http://creativecommons.org/ns#"
   xmlns:rdf="http://www.w3.org/1999/02/22-rdf-syntax-ns#"
   xmlns:svg="http://www.w3.org/2000/svg"
   xmlns="http://www.w3.org/2000/svg"
   xmlns:sodipodi="http://sodipodi.sourceforge.net/DTD/sodipodi-0.dtd"
   xmlns:inkscape="http://www.inkscape.org/namespaces/inkscape"
   version="1.0"
   width="863.12537pt"
   height="832.95837pt"
   viewBox="0 0 863.1253 832.95841"
   preserveAspectRatio="xMidYMid meet"
   id="svg8"
   sodipodi:docname="ApplicationSettings.svg"
   inkscape:version="0.92.4 (5da689c313, 2019-01-14)"
   inkscape:export-filename="C:\Users\EHP\Downloads\304971.png"
   inkscape:export-xdpi="96"
   inkscape:export-ydpi="96">
  <defs
     id="defs12">
    <linearGradient
       id="linearGradient2322"
       osb:paint="solid">
      <stop
         style="stop-color:#aa0000;stop-opacity:1;"
         offset="0"
         id="stop2320" />
    </linearGradient>
    <meshgradient
       y="-7.1444861e-06"
       x="-1.5026269e-09"
       gradientUnits="userSpaceOnUse"
       id="meshgradient5794"
       inkscape:collect="always">
      <meshrow
         id="meshrow5748">
        <meshpatch
           id="meshpatch5730">
          <stop
             id="stop5722"
             style="stop-color:#f71a0a;stop-opacity:1"
             path="c 155.301,0  310.601,0  465.902,0" />
          <stop
             id="stop5724"
             style="stop-color:#f71a0a;stop-opacity:1"
             path="c 0,142.654  0,285.308  0,427.962" />
          <stop
             id="stop5726"
             style="stop-color:#d7eef4;stop-opacity:1"
             path="c -155.301,0  -310.601,0  -465.902,0" />
          <stop
             id="stop5728"
             style="stop-color:#f71a0a;stop-opacity:1"
             path="c 0,-142.654  0,-285.308  0,-427.962" />
        </meshpatch>
        <meshpatch
           id="meshpatch5738">
          <stop
             id="stop5732"
             path="c 155.301,0  310.601,0  465.902,0" />
          <stop
             id="stop5734"
             style="stop-color:#ffffff;stop-opacity:1"
             path="c 0,142.654  0,285.308  0,427.962" />
          <stop
             id="stop5736"
             style="stop-color:#0000aa;stop-opacity:1"
             path="c -155.301,0  -310.601,0  -465.902,0" />
        </meshpatch>
        <meshpatch
           id="meshpatch5746">
          <stop
             id="stop5740"
             path="c 155.301,0  310.601,0  465.902,0" />
          <stop
             id="stop5742"
             style="stop-color:#0000aa;stop-opacity:1"
             path="c 0,142.654  0,285.308  0,427.962" />
          <stop
             id="stop5744"
             style="stop-color:#ffffff;stop-opacity:1"
             path="c -155.301,0  -310.601,0  -465.902,0" />
        </meshpatch>
      </meshrow>
      <meshrow
         id="meshrow5770">
        <meshpatch
           id="meshpatch5756">
          <stop
             id="stop5750"
             path="c 0,142.654  0,285.308  0,427.962" />
          <stop
             id="stop5752"
             style="stop-color:#0000aa;stop-opacity:1"
             path="c -155.301,0  -310.601,0  -465.902,0" />
          <stop
             id="stop5754"
             style="stop-color:#ffffff;stop-opacity:1"
             path="c 0,-142.654  0,-285.308  0,-427.962" />
        </meshpatch>
        <meshpatch
           id="meshpatch5762">
          <stop
             id="stop5758"
             path="c 0,142.654  0,285.308  0,427.962" />
          <stop
             id="stop5760"
             style="stop-color:#ffffff;stop-opacity:1"
             path="c -155.301,0  -310.601,0  -465.902,0" />
        </meshpatch>
        <meshpatch
           id="meshpatch5768">
          <stop
             id="stop5764"
             path="c 0,142.654  0,285.308  0,427.962" />
          <stop
             id="stop5766"
             style="stop-color:#0000aa;stop-opacity:1"
             path="c -155.301,0  -310.601,0  -465.902,0" />
        </meshpatch>
      </meshrow>
      <meshrow
         id="meshrow5792">
        <meshpatch
           id="meshpatch5778">
          <stop
             id="stop5772"
             path="c 0,142.654  0,285.308  0,427.962" />
          <stop
             id="stop5774"
             style="stop-color:#ffffff;stop-opacity:1"
             path="c -155.301,0  -310.601,0  -465.902,0" />
          <stop
             id="stop5776"
             style="stop-color:#0000aa;stop-opacity:1"
             path="c 0,-142.654  0,-285.308  0,-427.962" />
        </meshpatch>
        <meshpatch
           id="meshpatch5784">
          <stop
             id="stop5780"
             path="c 0,142.654  0,285.308  0,427.962" />
          <stop
             id="stop5782"
             style="stop-color:#0000aa;stop-opacity:1"
             path="c -155.301,0  -310.601,0  -465.902,0" />
        </meshpatch>
        <meshpatch
           id="meshpatch5790">
          <stop
             id="stop5786"
             path="c 0,142.654  0,285.308  0,427.962" />
          <stop
             id="stop5788"
             style="stop-color:#ffffff;stop-opacity:1"
             path="c -155.301,0  -310.601,0  -465.902,0" />
        </meshpatch>
      </meshrow>
    </meshgradient>
    <meshgradient
       inkscape:collect="always"
       id="meshgradient870"
       gradientUnits="userSpaceOnUse"
       x="-1.5026269e-09"
       y="-7.1444861e-06">
      <meshrow
         id="meshrow898">
        <meshpatch
           id="meshpatch880">
          <stop
             path="c 155.301,0  310.601,0  465.902,0"
             style="stop-color:#f71a0a;stop-opacity:1"
             id="stop872" />
          <stop
             path="c 0,142.654  0,285.308  0,427.962"
             style="stop-color:#f71a0a;stop-opacity:1"
             id="stop874" />
          <stop
             path="c -155.301,0  -310.601,0  -465.902,0"
             style="stop-color:#d7eef4;stop-opacity:1"
             id="stop876" />
          <stop
             path="c 0,-142.654  0,-285.308  0,-427.962"
             style="stop-color:#f71a0a;stop-opacity:1"
             id="stop878" />
        </meshpatch>
        <meshpatch
           id="meshpatch888">
          <stop
             path="c 155.301,0  310.601,0  465.902,0"
             id="stop882" />
          <stop
             path="c 0,142.654  0,285.308  0,427.962"
             style="stop-color:#ffffff;stop-opacity:1"
             id="stop884" />
          <stop
             path="c -155.301,0  -310.601,0  -465.902,0"
             style="stop-color:#0000aa;stop-opacity:1"
             id="stop886" />
        </meshpatch>
        <meshpatch
           id="meshpatch896">
          <stop
             path="c 155.301,0  310.601,0  465.902,0"
             id="stop890" />
          <stop
             path="c 0,142.654  0,285.308  0,427.962"
             style="stop-color:#0000aa;stop-opacity:1"
             id="stop892" />
          <stop
             path="c -155.301,0  -310.601,0  -465.902,0"
             style="stop-color:#ffffff;stop-opacity:1"
             id="stop894" />
        </meshpatch>
      </meshrow>
      <meshrow
         id="meshrow920">
        <meshpatch
           id="meshpatch906">
          <stop
             path="c 0,142.654  0,285.308  0,427.962"
             id="stop900" />
          <stop
             path="c -155.301,0  -310.601,0  -465.902,0"
             style="stop-color:#0000aa;stop-opacity:1"
             id="stop902" />
          <stop
             path="c 0,-142.654  0,-285.308  0,-427.962"
             style="stop-color:#ffffff;stop-opacity:1"
             id="stop904" />
        </meshpatch>
        <meshpatch
           id="meshpatch912">
          <stop
             path="c 0,142.654  0,285.308  0,427.962"
             id="stop908" />
          <stop
             path="c -155.301,0  -310.601,0  -465.902,0"
             style="stop-color:#ffffff;stop-opacity:1"
             id="stop910" />
        </meshpatch>
        <meshpatch
           id="meshpatch918">
          <stop
             path="c 0,142.654  0,285.308  0,427.962"
             id="stop914" />
          <stop
             path="c -155.301,0  -310.601,0  -465.902,0"
             style="stop-color:#0000aa;stop-opacity:1"
             id="stop916" />
        </meshpatch>
      </meshrow>
      <meshrow
         id="meshrow942">
        <meshpatch
           id="meshpatch928">
          <stop
             path="c 0,142.654  0,285.308  0,427.962"
             id="stop922" />
          <stop
             path="c -155.301,0  -310.601,0  -465.902,0"
             style="stop-color:#ffffff;stop-opacity:1"
             id="stop924" />
          <stop
             path="c 0,-142.654  0,-285.308  0,-427.962"
             style="stop-color:#0000aa;stop-opacity:1"
             id="stop926" />
        </meshpatch>
        <meshpatch
           id="meshpatch934">
          <stop
             path="c 0,142.654  0,285.308  0,427.962"
             id="stop930" />
          <stop
             path="c -155.301,0  -310.601,0  -465.902,0"
             style="stop-color:#0000aa;stop-opacity:1"
             id="stop932" />
        </meshpatch>
        <meshpatch
           id="meshpatch940">
          <stop
             path="c 0,142.654  0,285.308  0,427.962"
             id="stop936" />
          <stop
             path="c -155.301,0  -310.601,0  -465.902,0"
             style="stop-color:#ffffff;stop-opacity:1"
             id="stop938" />
        </meshpatch>
      </meshrow>
    </meshgradient>
    <meshgradient
       inkscape:collect="always"
       id="meshgradient952"
       gradientUnits="userSpaceOnUse"
       x="-1.5026269e-09"
       y="-7.1444861e-06">
      <meshrow
         id="meshrow980">
        <meshpatch
           id="meshpatch962">
          <stop
             path="c 155.301,0  310.601,0  465.902,0"
             style="stop-color:#f71a0a;stop-opacity:1"
             id="stop954" />
          <stop
             path="c 0,142.654  0,285.308  0,427.962"
             style="stop-color:#f71a0a;stop-opacity:1"
             id="stop956" />
          <stop
             path="c -155.301,0  -310.601,0  -465.902,0"
             style="stop-color:#d7eef4;stop-opacity:1"
             id="stop958" />
          <stop
             path="c 0,-142.654  0,-285.308  0,-427.962"
             style="stop-color:#f71a0a;stop-opacity:1"
             id="stop960" />
        </meshpatch>
        <meshpatch
           id="meshpatch970">
          <stop
             path="c 155.301,0  310.601,0  465.902,0"
             id="stop964" />
          <stop
             path="c 0,142.654  0,285.308  0,427.962"
             style="stop-color:#ffffff;stop-opacity:1"
             id="stop966" />
          <stop
             path="c -155.301,0  -310.601,0  -465.902,0"
             style="stop-color:#0000aa;stop-opacity:1"
             id="stop968" />
        </meshpatch>
        <meshpatch
           id="meshpatch978">
          <stop
             path="c 155.301,0  310.601,0  465.902,0"
             id="stop972" />
          <stop
             path="c 0,142.654  0,285.308  0,427.962"
             style="stop-color:#0000aa;stop-opacity:1"
             id="stop974" />
          <stop
             path="c -155.301,0  -310.601,0  -465.902,0"
             style="stop-color:#ffffff;stop-opacity:1"
             id="stop976" />
        </meshpatch>
      </meshrow>
      <meshrow
         id="meshrow1002">
        <meshpatch
           id="meshpatch988">
          <stop
             path="c 0,142.654  0,285.308  0,427.962"
             id="stop982" />
          <stop
             path="c -155.301,0  -310.601,0  -465.902,0"
             style="stop-color:#0000aa;stop-opacity:1"
             id="stop984" />
          <stop
             path="c 0,-142.654  0,-285.308  0,-427.962"
             style="stop-color:#ffffff;stop-opacity:1"
             id="stop986" />
        </meshpatch>
        <meshpatch
           id="meshpatch994">
          <stop
             path="c 0,142.654  0,285.308  0,427.962"
             id="stop990" />
          <stop
             path="c -155.301,0  -310.601,0  -465.902,0"
             style="stop-color:#ffffff;stop-opacity:1"
             id="stop992" />
        </meshpatch>
        <meshpatch
           id="meshpatch1000">
          <stop
             path="c 0,142.654  0,285.308  0,427.962"
             id="stop996" />
          <stop
             path="c -155.301,0  -310.601,0  -465.902,0"
             style="stop-color:#0000aa;stop-opacity:1"
             id="stop998" />
        </meshpatch>
      </meshrow>
      <meshrow
         id="meshrow1024">
        <meshpatch
           id="meshpatch1010">
          <stop
             path="c 0,142.654  0,285.308  0,427.962"
             id="stop1004" />
          <stop
             path="c -155.301,0  -310.601,0  -465.902,0"
             style="stop-color:#ffffff;stop-opacity:1"
             id="stop1006" />
          <stop
             path="c 0,-142.654  0,-285.308  0,-427.962"
             style="stop-color:#0000aa;stop-opacity:1"
             id="stop1008" />
        </meshpatch>
        <meshpatch
           id="meshpatch1016">
          <stop
             path="c 0,142.654  0,285.308  0,427.962"
             id="stop1012" />
          <stop
             path="c -155.301,0  -310.601,0  -465.902,0"
             style="stop-color:#0000aa;stop-opacity:1"
             id="stop1014" />
        </meshpatch>
        <meshpatch
           id="meshpatch1022">
          <stop
             path="c 0,142.654  0,285.308  0,427.962"
             id="stop1018" />
          <stop
             path="c -155.301,0  -310.601,0  -465.902,0"
             style="stop-color:#ffffff;stop-opacity:1"
             id="stop1020" />
        </meshpatch>
      </meshrow>
    </meshgradient>
  </defs>
  <sodipodi:namedview
     pagecolor="#ffffff"
     bordercolor="#666666"
     borderopacity="1"
     objecttolerance="10"
     gridtolerance="10"
     guidetolerance="10"
     inkscape:pageopacity="0"
     inkscape:pageshadow="2"
     inkscape:window-width="1920"
     inkscape:window-height="1057"
     id="namedview10"
     showgrid="false"
     fit-margin-top="0"
     fit-margin-left="0"
     fit-margin-right="0"
     fit-margin-bottom="0"
     inkscape:zoom="0.2765625"
     inkscape:cx="2030.9073"
     inkscape:cy="201.86938"
     inkscape:window-x="-8"
     inkscape:window-y="-8"
     inkscape:window-maximized="1"
     inkscape:current-layer="g5498" />
  <metadata
     id="metadata2">
Created by potrace 1.15, written by Peter Selinger 2001-2017
<rdf:RDF>
  <cc:Work
     rdf:about="">
    <dc:format>image/svg+xml</dc:format>
    <dc:type
       rdf:resource="http://purl.org/dc/dcmitype/StillImage" />
    <dc:title></dc:title>
  </cc:Work>
</rdf:RDF>
</metadata>
  <g
     id="g5498"
     style="fill:url(#meshgradient5794);fill-opacity:1"
     transform="translate(343.2684,-6.2658903)">
    <g
       id="g5954"
       style="fill:#6600ff;fill-opacity:1"
       transform="matrix(0.25960209,0,0,0.25960209,251.63224,6.6652085)">
      <g
         transform="matrix(0.1,0,0,-0.1,-0.12208014,1280.003)"
         id="g6"
         style="fill:#6600ff;fill-opacity:1;stroke:none"
         inkscape:export-xdpi="96"
         inkscape:export-ydpi="96">
        <path
           d="m 1931,12778 c -43,-45 -69,-159 -115,-503 -46,-340 -61,-873 -31,-1079 16,-115 35,-295 35,-335 -1,-24 -2,-23 -22,14 -11,21 -31,69 -43,105 -12,36 -59,160 -103,276 -92,238 -123,350 -152,536 -12,74 -40,191 -67,276 -25,81 -56,188 -68,237 -23,92 -105,280 -152,348 -28,40 -69,67 -102,67 -26,0 -108,-93 -121,-138 -27,-91 -23,-170 14,-372 20,-107 52,-244 71,-305 19,-60 50,-175 70,-255 20,-80 52,-185 70,-235 19,-49 50,-146 70,-215 19,-69 38,-133 41,-142 6,-21 -21,-24 -61,-6 -50,22 -156,195 -211,343 -35,95 -117,235 -161,276 -39,35 -49,40 -86,37 -40,-3 -43,-6 -79,-68 -54,-92 -52,-137 8,-289 25,-64 78,-182 117,-264 38,-81 68,-149 66,-152 -3,-2 -34,0 -70,5 -54,9 -69,16 -94,44 -35,40 -56,79 -85,158 -20,55 -26,60 -93,99 -40,23 -115,68 -167,100 -101,63 -144,73 -173,42 -27,-30 -58,-124 -52,-153 8,-34 101,-172 178,-263 65,-77 71,-105 31,-142 -33,-31 -86,-46 -188,-54 -70,-5 -81,-9 -99,-33 -19,-25 -19,-31 -7,-90 7,-35 31,-114 52,-176 43,-129 44,-132 21,-179 -15,-32 -19,-34 -49,-28 -28,5 -36,2 -49,-19 -21,-31 -9,-79 46,-191 42,-87 59,-109 134,-171 51,-43 122,-162 127,-214 3,-24 1,-25 -78,-30 -46,-3 -89,-11 -98,-19 -31,-26 -20,-80 31,-154 46,-66 47,-69 28,-83 -11,-9 -44,-14 -83,-14 -59,0 -66,-2 -98,-34 -29,-29 -34,-41 -34,-83 0,-26 5,-68 11,-92 5,-24 10,-89 11,-145 1,-95 -2,-106 -36,-188 -39,-95 -44,-130 -21,-180 8,-18 19,-51 25,-73 13,-55 53,-91 163,-145 l 92,-45 3,-47 c 3,-42 0,-48 -32,-75 -20,-16 -52,-35 -73,-42 -21,-8 -44,-18 -50,-23 -21,-17 -15,-75 16,-153 16,-40 42,-131 56,-202 31,-149 69,-251 171,-457 123,-247 210,-366 331,-457 61,-45 83,-82 83,-136 0,-47 -19,-76 -72,-109 -47,-30 -68,-74 -68,-145 0,-73 21,-145 88,-304 85,-200 128,-318 172,-472 21,-74 50,-151 63,-171 35,-53 288,-343 368,-422 43,-42 95,-81 141,-105 94,-49 119,-72 179,-172 55,-91 140,-175 209,-207 41,-19 63,-21 270,-21 221,-1 226,-1 305,-29 165,-58 223,-104 249,-195 27,-98 87,-133 194,-113 l 52,9 24,-42 c 18,-30 41,-50 84,-73 33,-18 82,-50 108,-72 27,-22 64,-45 83,-51 50,-17 145,-5 241,30 46,17 92,31 101,31 12,0 24,-17 38,-55 12,-31 21,-61 21,-68 0,-7 11,-36 25,-64 42,-83 101,-93 196,-32 61,39 110,87 181,175 67,84 107,124 123,124 35,0 69,-79 115,-275 38,-158 47,-250 30,-312 -12,-41 -32,-66 -134,-169 -127,-128 -171,-158 -335,-232 -112,-51 -152,-78 -267,-178 -72,-63 -112,-88 -229,-143 -77,-38 -172,-86 -211,-108 -38,-22 -168,-93 -289,-158 -505,-269 -615,-351 -695,-520 -23,-49 -69,-125 -101,-167 -96,-124 -119,-201 -85,-281 15,-38 77,-95 109,-101 12,-3 40,-9 62,-13 l 40,-9 -3,-84 c -2,-54 3,-106 12,-143 23,-84 71,-203 98,-243 33,-48 115,-88 263,-129 165,-45 232,-52 311,-31 34,9 64,16 67,16 3,0 32,-22 63,-50 87,-76 118,-71 232,32 30,26 60,48 68,48 20,0 45,-43 43,-76 -4,-51 9,-71 62,-93 53,-23 143,-31 195,-18 l 32,8 4,-81 c 3,-86 11,-100 58,-100 37,0 122,43 169,85 22,20 58,66 81,101 22,35 46,64 53,64 24,0 95,-86 138,-169 65,-122 103,-136 224,-77 39,18 115,64 170,102 l 100,69 165,-3 c 157,-3 166,-2 188,18 29,28 79,127 96,193 l 13,52 h 159 c 156,0 160,-1 217,-29 l 57,-29 29,27 c 44,42 135,179 236,354 50,85 95,157 101,159 29,9 79,-172 99,-364 9,-89 21,-148 33,-172 27,-52 85,-89 167,-106 98,-20 418,-39 556,-32 l 116,6 11,-112 c 15,-155 38,-249 68,-282 l 25,-27 108,7 c 92,6 113,5 145,-10 48,-23 104,-89 117,-140 44,-159 65,-188 183,-245 82,-39 205,-70 278,-70 h 39 l -60,56 c -113,105 -155,172 -205,329 -25,77 -47,149 -50,160 -6,19 3,18 120,-21 146,-49 218,-59 324,-46 41,5 76,9 77,8 2,-2 -6,-72 -17,-157 -11,-85 -20,-160 -20,-168 0,-11 14,-13 73,-8 96,8 168,31 206,66 27,25 31,36 31,80 0,111 -69,363 -121,446 -34,54 -91,84 -156,85 h -43 v 45 c 0,63 -22,110 -61,130 -27,14 -51,16 -153,10 -121,-6 -121,-6 -296,39 -96,25 -223,61 -282,79 l -107,33 -6,159 c -6,183 -19,298 -42,370 -9,28 -49,123 -90,213 -120,265 -156,379 -139,446 12,50 126,73 202,41 20,-8 62,-43 93,-77 209,-228 273,-282 394,-327 58,-21 331,-79 486,-102 77,-12 85,-15 102,-43 24,-39 25,-121 3,-218 -33,-143 -7,-208 142,-356 161,-160 254,-193 376,-132 77,38 141,93 176,150 17,30 32,58 32,62 0,5 -22,-3 -49,-16 -98,-50 -259,-56 -326,-12 -54,35 -79,155 -65,306 16,163 26,187 96,216 72,30 123,11 183,-69 79,-106 109,-203 78,-251 -15,-22 -15,-25 0,-37 14,-12 25,-4 90,66 43,46 87,105 105,142 l 31,64 -20,72 c -11,40 -22,79 -24,87 -3,13 17,16 126,21 72,4 167,15 213,24 50,12 86,15 92,9 5,-5 5,-60 0,-135 -11,-177 4,-243 51,-218 10,5 27,22 38,37 39,55 152,298 158,339 11,85 -41,163 -171,254 -126,89 -204,107 -396,90 -272,-23 -460,-25 -626,-7 -222,24 -231,27 -256,82 -11,25 -33,125 -49,222 -48,285 -85,396 -160,477 -23,25 -106,97 -184,160 -176,141 -239,209 -259,276 -33,110 -39,166 -26,231 38,195 175,355 397,463 110,54 306,135 326,135 18,0 256,-244 322,-330 l 50,-65 6,-97 c 7,-109 20,-139 74,-165 99,-47 227,88 271,284 21,97 15,283 -17,463 -32,184 -31,308 5,450 36,145 34,237 -7,317 -89,174 -329,462 -463,554 -27,18 -110,59 -185,90 -239,98 -275,129 -264,229 7,71 47,185 155,450 48,118 93,232 100,253 7,23 12,124 14,275 3,272 -1,256 108,512 148,349 247,509 414,670 99,95 157,136 484,337 404,249 470,312 515,501 24,99 13,137 -55,186 -28,20 -50,42 -50,48 0,23 55,130 145,283 128,217 167,307 229,520 99,342 155,581 177,760 22,177 3,210 -120,210 -64,-1 -85,-5 -135,-30 -109,-55 -114,-66 -221,-489 l -63,-251 -1,145 c -1,214 -18,297 -86,435 -70,143 -125,205 -183,205 -49,0 -67,-20 -82,-85 -19,-84 -31,-388 -24,-610 4,-115 4,-208 1,-205 -2,3 -35,79 -71,170 -95,235 -119,270 -179,270 -34,0 -64,-37 -77,-95 -14,-58 -17,-388 -6,-549 l 8,-109 -61,71 c -47,55 -76,78 -133,107 -79,39 -105,40 -147,2 -30,-28 -69,-110 -77,-162 l -6,-41 -34,33 c -42,39 -85,49 -155,34 -106,-23 -156,-78 -145,-157 3,-25 1,-46 -5,-49 -5,-4 -58,-15 -118,-26 -125,-22 -166,-37 -201,-74 -25,-26 -25,-29 -22,-167 4,-156 -7,-225 -45,-275 -17,-24 -32,-33 -52,-33 -16,0 -80,-26 -142,-57 -111,-57 -113,-58 -200,-58 -106,0 -123,-11 -140,-93 -12,-61 -8,-123 22,-310 25,-159 25,-156 -4,-137 -46,30 -140,55 -206,55 -105,-1 -180,-46 -215,-132 -23,-53 -20,-120 10,-233 37,-142 36,-189 -4,-252 -38,-60 -49,-91 -63,-192 -20,-138 -53,-184 -187,-255 -118,-61 -123,-73 -172,-393 -17,-110 -37,-223 -45,-251 -8,-27 -46,-96 -84,-153 -91,-137 -104,-176 -104,-314 0,-83 6,-140 27,-233 15,-68 26,-138 24,-155 -3,-29 -6,-32 -41,-35 -60,-5 -122,33 -236,145 -73,73 -134,122 -208,168 -134,83 -279,193 -332,251 -23,24 -67,83 -97,132 -97,151 -121,168 -280,200 -56,12 -127,30 -158,41 -122,43 -269,152 -446,331 -74,75 -178,175 -230,221 -211,187 -231,223 -377,674 -47,144 -97,323 -113,400 -55,269 -139,456 -264,591 -163,175 -194,152 -195,-138 -1,-71 -5,-128 -9,-128 -11,0 -119,184 -185,316 -65,130 -84,190 -92,299 -3,44 -13,117 -21,162 -10,56 -16,178 -18,380 -3,211 -8,327 -20,398 -14,88 -36,359 -65,804 -5,73 -7,256 -4,406 l 6,274 -27,55 c -32,65 -86,116 -123,116 -15,0 -46,-9 -70,-21 -35,-17 -48,-32 -73,-82 -25,-52 -34,-96 -59,-272 -50,-349 -63,-519 -51,-675 15,-195 15,-474 1,-543 -9,-39 -23,-69 -42,-90 l -29,-32 -24,27 c -25,28 -48,92 -115,323 -51,174 -57,207 -80,426 -15,131 -18,215 -14,330 3,85 0,251 -6,369 -6,118 -16,319 -21,445 -14,346 -41,464 -116,500 -48,22 -109,20 -133,-7 z"
           id="path4"
           inkscape:connector-curvature="0"
           style="fill:#6600ff;fill-opacity:1"
           inkscape:export-xdpi="95.973732"
           inkscape:export-ydpi="95.973732" />
      </g>
    </g>
    <g
       id="g950"
       style="fill:url(#meshgradient952)"
       transform="matrix(1.1847803,0,0,1.1847803,-1993.5907,-450.78292)">
      <path
         id="path2"
         d="m 1863.5845,583.08776 c -4.3853,-17.53999 -11.6928,-35.07998 -20.4635,-51.15679 l 17.5399,-40.92571 -61.3893,-59.92748 -40.9256,17.53999 c -16.0782,-8.7693 -32.1564,-16.07821 -51.1569,-20.46356 l -14.6163,-42.38749 h -86.2369 l -16.0782,42.38749 c -17.5399,4.38535 -35.0799,11.69286 -51.1567,20.46356 l -40.9271,-17.53999 -59.9275,59.92748 17.54,40.92571 c -8.7693,16.07821 -16.0782,32.15642 -20.4636,51.15679 l -42.3875,16.07821 v 86.23677 l 42.3875,16.07821 c 4.3854,17.53999 11.6929,35.07998 20.4636,51.15679 l -17.54,40.92571 61.3892,59.92748 40.9258,-17.53999 c 16.0782,8.7693 32.1564,16.07821 51.1567,20.46356 l 16.0782,42.38749 h 84.775 l 16.0782,-42.38749 c 17.5401,-4.38535 35.08,-11.69286 51.1569,-20.46356 l 40.9256,17.53999 61.3893,-59.92748 -17.5399,-40.92571 c 8.7692,-16.07821 16.0782,-32.15642 20.4635,-51.15679 l 42.3875,-16.07821 v -86.23677 z m -214.8611,163.70425 c -58.4657,0 -105.2384,-46.77285 -105.2384,-105.23855 0,-58.4657 46.7727,-105.23854 105.2384,-105.23854 58.4657,0 105.2387,46.77284 105.2387,105.23854 0,58.4657 -46.773,105.23855 -105.2387,105.23855 z"
         style="fill:#84dbff;stroke-width:1.39883482"
         inkscape:connector-curvature="0" />
      <g
         style="fill:url(#meshgradient870)"
         id="g8"
         transform="matrix(1.3988348,0,0,1.3988348,1392.2051,385.76672)">
        <path
           id="path4-9"
           d="m 236.669,236.147 c -29.257,29.257 -76.278,29.257 -105.535,0 l -27.167,27.167 c 43.886,43.886 115.984,43.886 159.869,0 43.885,-43.886 43.886,-114.939 0,-159.869 l -27.167,27.167 c 29.258,29.257 29.258,76.278 0,105.535 z"
           style="fill:#54c0eb"
           inkscape:connector-curvature="0" />
        <path
           id="path6"
           d="m 103.967,103.445 c -43.886,43.886 -43.886,114.939 0,159.869 l 27.167,-27.167 c -29.257,-29.257 -29.257,-76.278 0,-105.535 29.257,-29.257 76.278,-29.257 105.535,0 l 27.167,-27.167 c -43.885,-43.886 -115.983,-43.886 -159.869,0 z"
           style="fill:#54c0eb"
           inkscape:connector-curvature="0" />
      </g>
      <path
         id="path10"
         d="m 1888.4321,985.03874 c 1.4617,-8.7692 1.4617,-16.07821 0,-24.84741 l 14.6163,-14.61652 -14.6163,-36.54034 h -20.4637 c -4.3852,-5.84713 -11.6927,-11.69286 -17.5399,-17.53999 v -20.46356 l -36.5403,-14.61642 -14.6166,14.61642 c -8.7692,-1.46178 -16.0782,-1.46178 -24.8474,0 l -14.6165,-14.61642 -36.5403,14.61642 v 20.46356 c -5.8472,4.38534 -11.6928,11.69286 -17.5399,17.53999 h -20.4637 l -14.6163,36.54034 14.6163,14.61652 c -1.4617,8.7692 -1.4617,16.07821 0,24.84741 l -14.6163,14.61652 14.6163,36.54034 h 20.4637 c 4.3852,5.8472 11.6927,11.6928 17.5399,17.5399 v 20.4637 l 36.5403,14.6163 14.6165,-14.6163 c 8.7692,1.4617 16.0782,1.4617 24.8474,0 l 14.6166,14.6163 36.5403,-14.6163 v -20.4637 c 5.8472,-4.3852 11.6928,-11.6927 17.5399,-17.5399 h 20.4637 l 14.6163,-36.54034 z m -116.9314,30.69476 c -24.8476,-10.2311 -36.5404,-38.00227 -26.3093,-61.3893 10.2311,-24.8476 38.002,-36.54044 61.3892,-26.30929 24.8475,10.23108 36.5404,38.00206 26.3093,61.38927 -10.2325,24.84742 -38.0035,36.54032 -61.3892,26.30932 z"
         style="fill:#4cdbc4;stroke-width:1.39883482"
         inkscape:connector-curvature="0" />
      <path
         id="path12"
         d="m 2079.9059,793.56485 c 1.4617,-8.7693 1.4617,-16.07821 0,-24.84751 l 14.6163,-14.61642 -14.6163,-36.54037 h -20.4637 c -4.3852,-5.84713 -11.6927,-11.69286 -17.5399,-17.53999 v -20.46355 l -36.5403,-14.61643 -14.6165,14.61643 c -8.7692,-1.46178 -16.0781,-1.46178 -24.8474,0 l -14.6164,-14.61643 -36.5403,14.61643 v 20.46355 c -5.8472,4.38535 -11.693,11.69286 -17.5401,17.53999 h -20.4635 l -14.6165,36.54037 14.6165,14.61642 c -1.4619,8.7693 -1.4619,16.07821 0,24.84751 l -14.6165,14.61642 14.6165,36.54037 h 20.4635 c 4.3854,5.84712 11.6929,11.69286 17.5401,17.53999 v 20.46355 l 36.5403,14.61643 14.6164,-14.61643 c 8.7693,1.46178 16.0782,1.46178 24.8474,0 l 14.6165,14.61643 36.5403,-14.61643 v -20.46355 c 5.8472,-4.38535 11.6928,-11.69287 17.5399,-17.53999 h 20.4637 l 14.6163,-36.54037 z m -118.3918,32.15501 c -24.8474,-10.23108 -36.5404,-38.00214 -26.3093,-61.38926 10.2311,-24.84751 38.0023,-36.54037 61.3893,-26.30929 24.8474,10.23108 36.5403,38.00215 26.3093,61.38927 -8.7707,24.8475 -36.5417,36.54176 -61.3893,26.30928 z"
         style="fill:#ff7058;stroke-width:1.39883482"
         inkscape:connector-curvature="0" />
    </g>
  </g>
</svg>
