<?xml version="1.0" encoding="UTF-8" standalone="no"?>
<svg
   xmlns:dc="http://purl.org/dc/elements/1.1/"
   xmlns:cc="http://creativecommons.org/ns#"
   xmlns:rdf="http://www.w3.org/1999/02/22-rdf-syntax-ns#"
   xmlns:svg="http://www.w3.org/2000/svg"
   xmlns="http://www.w3.org/2000/svg"
   xmlns:sodipodi="http://sodipodi.sourceforge.net/DTD/sodipodi-0.dtd"
   xmlns:inkscape="http://www.inkscape.org/namespaces/inkscape"
   id="color"
   enable-background="new 0 0 24 24"
   height="512"
   viewBox="0 0 24 24"
   width="512"
   version="1.1"
   sodipodi:docname="Connection.svg"
   inkscape:version="0.92.4 (5da689c313, 2019-01-14)">
  <metadata
     id="metadata89">
    <rdf:RDF>
      <cc:Work
         rdf:about="">
        <dc:format>image/svg+xml</dc:format>
        <dc:type
           rdf:resource="http://purl.org/dc/dcmitype/StillImage" />
      </cc:Work>
    </rdf:RDF>
  </metadata>
  <defs
     id="defs87" />
  <sodipodi:namedview
     pagecolor="#ffffff"
     bordercolor="#666666"
     borderopacity="1"
     objecttolerance="10"
     gridtolerance="10"
     guidetolerance="10"
     inkscape:pageopacity="0"
     inkscape:pageshadow="2"
     inkscape:window-width="1920"
     inkscape:window-height="1057"
     id="namedview85"
     showgrid="false"
     inkscape:zoom="0.4609375"
     inkscape:cx="651.40774"
     inkscape:cy="224.50558"
     inkscape:window-x="-8"
     inkscape:window-y="-8"
     inkscape:window-maximized="1"
     inkscape:current-layer="color" />
  <g
     fill="#607d8b"
     id="g20">
    <path
       d="m6.473 4.9-.927-1.18c1.492-1.171 3.277-1.913 5.162-2.145l.184 1.489c-1.615.199-3.142.833-4.419 1.836z"
       id="path2" />
    <path
       d="m20.936 10.892c-.199-1.615-.833-3.142-1.836-4.419l1.18-.927c1.171 1.492 1.913 3.277 2.145 5.162z"
       id="path4" />
    <path
       d="m13.292 22.425-.184-1.489c1.614-.198 3.142-.833 4.418-1.835l.927 1.18c-1.491 1.17-3.276 1.912-5.161 2.144z"
       id="path6" />
    <path
       d="m3.72 18.454c-1.171-1.492-1.913-3.277-2.145-5.162l1.489-.184c.198 1.614.833 3.142 1.835 4.418z"
       id="path8" />
    <path
       d="m3.064 10.892-1.489-.184c.232-1.885.974-3.67 2.145-5.162l1.18.927c-1.003 1.277-1.637 2.804-1.836 4.419z"
       id="path10" />
    <path
       d="m10.708 22.425c-1.885-.232-3.67-.974-5.162-2.145l.927-1.18c1.276 1.002 2.804 1.637 4.418 1.835z"
       id="path12" />
    <path
       d="m20.28 18.454-1.18-.927c1.002-1.276 1.637-2.804 1.835-4.418l1.489.184c-.231 1.884-.973 3.669-2.144 5.161z"
       id="path14" />
    <path
       d="m17.527 4.9c-1.276-1.002-2.804-1.637-4.418-1.835l.184-1.489c1.885.232 3.67.974 5.162 2.145z"
       id="path16" />
  </g>
  <path
     d="m10.8 2.323c-1.791.221-3.433.929-4.79 1.988l.463.589c1.276-1.002 2.804-1.637 4.418-1.835z"
     fill="#546d79"
     id="path36" />
  <path
     d="m19.689 6.011-.589.462c1.002 1.276 1.637 2.804 1.835 4.418l.741-.091c-.22-1.791-.928-3.433-1.987-4.789z"
     fill="#546d79"
     id="path38" />
  <path
     d="m17.527 19.1c-1.276 1.002-2.804 1.637-4.418 1.835l.091.741c1.791-.221 3.434-.929 4.79-1.988z"
     fill="#546d79"
     id="path40" />
  <path
     d="m3.064 13.108-.741.092c.221 1.792.929 3.434 1.988 4.79l.589-.463c-1.003-1.276-1.637-2.804-1.836-4.419z"
     fill="#546d79"
     id="path42" />
  <path
     d="m4.311 6.01c-1.059 1.356-1.767 2.999-1.988 4.79l.741.091c.199-1.614.833-3.141 1.836-4.418z"
     fill="#546d79"
     id="path44" />
  <path
     d="m6.473 19.1-.463.589c1.356 1.059 2.998 1.767 4.79 1.988l.091-.741c-1.614-.199-3.141-.833-4.418-1.836z"
     fill="#546d79"
     id="path46" />
  <path
     d="m20.936 13.108c-.198 1.614-.833 3.142-1.835 4.418l.589.463c1.059-1.356 1.767-2.998 1.988-4.79z"
     fill="#546d79"
     id="path48" />
  <path
     d="m13.2 2.323-.091.741c1.614.198 3.142.833 4.418 1.835l.463-.589c-1.357-1.058-2.999-1.766-4.79-1.987z"
     fill="#546d79"
     id="path50" />
  <path
     d="m2 10c-1.103 0-2 .897-2 2s.897 2 2 2z"
     fill="#dea806"
     id="path52" />
  <path
     d="m12 4c-1.103 0-2-.897-2-2s.897-2 2-2 2 .897 2 2-.897 2-2 2z"
     fill="#ffc107"
     id="path54" />
  <path
     d="m19.071 6.928c-.512 0-1.024-.195-1.414-.584-.779-.78-.779-2.049 0-2.829.78-.779 2.049-.779 2.829 0 .779.78.779 2.049 0 2.829-.391.389-.903.584-1.415.584z"
     fill="#ffc107"
     id="path56" />
  <path
     d="m22 14c-1.103 0-2-.897-2-2s.897-2 2-2 2 .897 2 2-.897 2-2 2z"
     fill="#ffc107"
     id="path58" />
  <path
     d="m19.071 21.07c-.512 0-1.024-.195-1.414-.584-.779-.78-.779-2.049 0-2.829.78-.779 2.049-.779 2.829 0 .779.78.779 2.049 0 2.829-.39.389-.903.584-1.415.584z"
     fill="#ffc107"
     id="path60" />
  <path
     d="m12 24c-1.103 0-2-.897-2-2s.897-2 2-2 2 .897 2 2-.897 2-2 2z"
     fill="#ffc107"
     id="path62" />
  <path
     d="m4.929 21.07c-.512 0-1.024-.195-1.414-.584-.779-.78-.779-2.049 0-2.829.78-.778 2.048-.779 2.829 0 .779.78.779 2.049 0 2.829-.39.389-.903.584-1.415.584z"
     fill="#ffc107"
     id="path64" />
  <path
     d="m2 14c-1.103 0-2-.897-2-2s.897-2 2-2 2 .897 2 2-.897 2-2 2z"
     fill="#ffc107"
     id="path66" />
  <path
     d="m4.929 6.928c-.512 0-1.024-.195-1.414-.584-.779-.78-.779-2.049 0-2.829.78-.779 2.049-.779 2.829 0 .779.78.779 2.049 0 2.829-.39.389-.903.584-1.415.584z"
     fill="#ffc107"
     id="path68" />
  <path
     d="m12 0c-1.103 0-2 .897-2 2s.897 2 2 2z"
     fill="#dea806"
     id="path70" />
  <path
     d="m12 20c-1.103 0-2 .897-2 2s.897 2 2 2z"
     fill="#dea806"
     id="path72" />
  <path
     d="m22 10c-1.103 0-2 .897-2 2s.897 2 2 2z"
     fill="#dea806"
     id="path74" />
  <path
     d="m3.472 3.558c-.78.78-.78 2.048 0 2.828s2.048.78 2.828 0z"
     fill="#dea806"
     id="path76" />
  <path
     d="m17.614 17.7c-.78.78-.78 2.048 0 2.828s2.048.78 2.828 0z"
     fill="#dea806"
     id="path78" />
  <path
     d="m3.472 17.7c-.78.78-.78 2.048 0 2.828s2.048.78 2.828 0z"
     fill="#dea806"
     id="path80" />
  <path
     d="m17.614 3.558c-.78.78-.78 2.048 0 2.828s2.048.78 2.828 0z"
     fill="#dea806"
     id="path82" />
  <g
     id="g134"
     transform="translate(19.830508,12.355932)">
    <path
       id="path2-56"
       d="m -4.1282473,1.2595902 c 0.181853,0 0.330463,-0.146644 0.330463,-0.33046304 V -4.0240374 c 0,-0.1818521 -0.146645,-0.3304621 -0.330463,-0.3304621 h -3.938272 c -0.271812,0 -0.533824,-0.1153705 -0.719608,-0.3109228 l -0.85258,-0.9034276 c -0.062575,-0.064524 -0.148611,-0.1036252 -0.240534,-0.1036252 h -1.8674417 c -0.181853,0 -0.330463,0.1466439 -0.330463,0.3304634 v 6.27308086 c 0,0.18185204 0.146644,0.33046204 0.330463,0.33046204 h 7.6184357 z"
       style="fill:#ffffff;stroke-width:0.03024834"
       inkscape:connector-curvature="0" />
    <rect
       id="rect4"
       height="1.3082103"
       width="1.3062441"
       style="fill:#e56353;stroke-width:0.03024834;fill-opacity:1"
       y="3.5728915"
       x="-8.5866718" />
    <path
       id="path6-2"
       d="m -2.6127753,3.8974862 h -4.00866 v -0.655087 c 0,-0.181854 -0.146645,-0.330463 -0.330463,-0.330463 h -0.657025 v -0.993356 h 3.480707 c 0.545558,0 0.989451,-0.443893 0.989451,-0.98945304 V -4.0240374 c 0,-0.5455588 -0.443893,-0.9894524 -0.989451,-0.9894524 h -3.938303 c -0.0919,0 -0.177951,-0.037143 -0.240536,-0.1036376 l -0.852548,-0.9053863 c -0.18382,-0.201394 -0.447797,-0.3128593 -0.719608,-0.3128593 h -1.8674717 c -0.545559,0 -0.989453,0.4438948 -0.989453,0.9894537 v 6.27308146 c 0,0.54555704 0.443894,0.98945304 0.989453,0.98945304 h 3.4807057 v 0.993354 h -0.64922 c -0.181853,0 -0.330463,0.146644 -0.330463,0.330464 v 0.655088 h -4.0164947 c -0.181853,0 -0.330463,0.146643 -0.330463,0.330462 0,0.18382 0.146644,0.330464 0.330463,0.330464 h 4.0125927 v 0.655089 c 0,0.181852 0.146645,0.330462 0.330463,0.330462 h 1.967171 c 0.181851,0 0.330462,-0.146643 0.330462,-0.330462 v -0.655089 h 4.006724 c 0.181853,0 0.330464,-0.146644 0.330464,-0.330464 3e-5,-0.181853 -0.148611,-0.328497 -0.328497,-0.328497 z m -4.667651,0.983586 h -1.306244 v -1.308209 h 1.306244 z M -12.077146,0.93106316 V -5.3439532 c 0,-0.1818533 0.146644,-0.3304635 0.330463,-0.3304635 h 1.8674417 c 0.09189,0 0.177951,0.037143 0.240534,0.1036376 l 0.85258,0.9053629 c 0.18772,0.1994575 0.449762,0.3109227 0.719608,0.3109227 h 3.938272 c 0.181853,0 0.330463,0.1466439 0.330463,0.3304622 v 4.95510146 c 0,0.18185304 -0.146645,0.33046204 -0.330463,0.33046204 h -7.6184357 c -0.183789,-0.00191 -0.330463,-0.150546 -0.330463,-0.33046204 z"
       style="fill:#64798a;stroke-width:0.03024834;fill-opacity:1"
       inkscape:connector-curvature="0" />
    <path
       id="path8-29"
       d="m -8.0665193,-3.6955092 c -0.453665,0 -0.889725,-0.1896872 -1.200648,-0.5181845 l -0.7548167,-0.8017327 h -1.396172 v 2.4071634 h 1.4568197 c 0.181853,0 0.330464,0.1466436 0.330464,0.3304629 0,0.1838183 -0.146645,0.3304623 -0.330464,0.3304623 h -1.4568197 v 0.518185 h 0.467367 c 0.181853,0 0.330463,0.146643 0.330463,0.330462 0,0.18185296 -0.146644,0.33046296 -0.330463,0.33046296 h -0.467367 v 1.366862 h 6.9613827 V -3.6955092 Z"
       style="fill:#f6c358;stroke-width:0.03024834;fill-opacity:1"
       inkscape:connector-curvature="0" />
  </g>
</svg>
