<?xml version="1.0" encoding="UTF-8" standalone="no"?>
<svg
   xmlns:dc="http://purl.org/dc/elements/1.1/"
   xmlns:cc="http://creativecommons.org/ns#"
   xmlns:rdf="http://www.w3.org/1999/02/22-rdf-syntax-ns#"
   xmlns:svg="http://www.w3.org/2000/svg"
   xmlns="http://www.w3.org/2000/svg"
   xmlns:sodipodi="http://sodipodi.sourceforge.net/DTD/sodipodi-0.dtd"
   xmlns:inkscape="http://www.inkscape.org/namespaces/inkscape"
   id="color"
   enable-background="new 0 0 24 24"
   height="512"
   viewBox="0 0 24 24"
   width="512"
   version="1.1"
   sodipodi:docname="Connection - Copy.svg"
   inkscape:version="0.92.4 (5da689c313, 2019-01-14)">
  <metadata
     id="metadata89">
    <rdf:RDF>
      <cc:Work
         rdf:about="">
        <dc:format>image/svg+xml</dc:format>
        <dc:type
           rdf:resource="http://purl.org/dc/dcmitype/StillImage" />
      </cc:Work>
    </rdf:RDF>
  </metadata>
  <defs
     id="defs87" />
  <sodipodi:namedview
     pagecolor="#ffffff"
     bordercolor="#666666"
     borderopacity="1"
     objecttolerance="10"
     gridtolerance="10"
     guidetolerance="10"
     inkscape:pageopacity="0"
     inkscape:pageshadow="2"
     inkscape:window-width="1920"
     inkscape:window-height="1057"
     id="namedview85"
     showgrid="false"
     inkscape:zoom="0.921875"
     inkscape:cx="289.2075"
     inkscape:cy="211.1024"
     inkscape:window-x="-8"
     inkscape:window-y="-8"
     inkscape:window-maximized="1"
     inkscape:current-layer="color" />
  <g
     fill="#607d8b"
     id="g20">
    <path
       d="m6.473 4.9-.927-1.18c1.492-1.171 3.277-1.913 5.162-2.145l.184 1.489c-1.615.199-3.142.833-4.419 1.836z"
       id="path2" />
    <path
       d="m20.936 10.892c-.199-1.615-.833-3.142-1.836-4.419l1.18-.927c1.171 1.492 1.913 3.277 2.145 5.162z"
       id="path4" />
    <path
       d="m13.292 22.425-.184-1.489c1.614-.198 3.142-.833 4.418-1.835l.927 1.18c-1.491 1.17-3.276 1.912-5.161 2.144z"
       id="path6" />
    <path
       d="m3.72 18.454c-1.171-1.492-1.913-3.277-2.145-5.162l1.489-.184c.198 1.614.833 3.142 1.835 4.418z"
       id="path8" />
    <path
       d="m3.064 10.892-1.489-.184c.232-1.885.974-3.67 2.145-5.162l1.18.927c-1.003 1.277-1.637 2.804-1.836 4.419z"
       id="path10" />
    <path
       d="m10.708 22.425c-1.885-.232-3.67-.974-5.162-2.145l.927-1.18c1.276 1.002 2.804 1.637 4.418 1.835z"
       id="path12" />
    <path
       d="m20.28 18.454-1.18-.927c1.002-1.276 1.637-2.804 1.835-4.418l1.489.184c-.231 1.884-.973 3.669-2.144 5.161z"
       id="path14" />
    <path
       d="m17.527 4.9c-1.276-1.002-2.804-1.637-4.418-1.835l.184-1.489c1.885.232 3.67.974 5.162 2.145z"
       id="path16" />
  </g>
  <path
     d="m10.8 2.323c-1.791.221-3.433.929-4.79 1.988l.463.589c1.276-1.002 2.804-1.637 4.418-1.835z"
     fill="#546d79"
     id="path36" />
  <path
     d="m19.689 6.011-.589.462c1.002 1.276 1.637 2.804 1.835 4.418l.741-.091c-.22-1.791-.928-3.433-1.987-4.789z"
     fill="#546d79"
     id="path38" />
  <path
     d="m17.527 19.1c-1.276 1.002-2.804 1.637-4.418 1.835l.091.741c1.791-.221 3.434-.929 4.79-1.988z"
     fill="#546d79"
     id="path40" />
  <path
     d="m3.064 13.108-.741.092c.221 1.792.929 3.434 1.988 4.79l.589-.463c-1.003-1.276-1.637-2.804-1.836-4.419z"
     fill="#546d79"
     id="path42" />
  <path
     d="m4.311 6.01c-1.059 1.356-1.767 2.999-1.988 4.79l.741.091c.199-1.614.833-3.141 1.836-4.418z"
     fill="#546d79"
     id="path44" />
  <path
     d="m6.473 19.1-.463.589c1.356 1.059 2.998 1.767 4.79 1.988l.091-.741c-1.614-.199-3.141-.833-4.418-1.836z"
     fill="#546d79"
     id="path46" />
  <path
     d="m20.936 13.108c-.198 1.614-.833 3.142-1.835 4.418l.589.463c1.059-1.356 1.767-2.998 1.988-4.79z"
     fill="#546d79"
     id="path48" />
  <path
     d="m13.2 2.323-.091.741c1.614.198 3.142.833 4.418 1.835l.463-.589c-1.357-1.058-2.999-1.766-4.79-1.987z"
     fill="#546d79"
     id="path50" />
  <path
     d="m2 10c-1.103 0-2 .897-2 2s.897 2 2 2z"
     fill="#dea806"
     id="path52" />
  <path
     d="m12 4c-1.103 0-2-.897-2-2s.897-2 2-2 2 .897 2 2-.897 2-2 2z"
     fill="#ffc107"
     id="path54" />
  <path
     d="m19.071 6.928c-.512 0-1.024-.195-1.414-.584-.779-.78-.779-2.049 0-2.829.78-.779 2.049-.779 2.829 0 .779.78.779 2.049 0 2.829-.391.389-.903.584-1.415.584z"
     fill="#ffc107"
     id="path56" />
  <path
     d="m22 14c-1.103 0-2-.897-2-2s.897-2 2-2 2 .897 2 2-.897 2-2 2z"
     fill="#ffc107"
     id="path58" />
  <path
     d="m19.071 21.07c-.512 0-1.024-.195-1.414-.584-.779-.78-.779-2.049 0-2.829.78-.779 2.049-.779 2.829 0 .779.78.779 2.049 0 2.829-.39.389-.903.584-1.415.584z"
     fill="#ffc107"
     id="path60" />
  <path
     d="m12 24c-1.103 0-2-.897-2-2s.897-2 2-2 2 .897 2 2-.897 2-2 2z"
     fill="#ffc107"
     id="path62" />
  <path
     d="m4.929 21.07c-.512 0-1.024-.195-1.414-.584-.779-.78-.779-2.049 0-2.829.78-.778 2.048-.779 2.829 0 .779.78.779 2.049 0 2.829-.39.389-.903.584-1.415.584z"
     fill="#ffc107"
     id="path64" />
  <path
     d="m2 14c-1.103 0-2-.897-2-2s.897-2 2-2 2 .897 2 2-.897 2-2 2z"
     fill="#ffc107"
     id="path66" />
  <path
     d="m4.929 6.928c-.512 0-1.024-.195-1.414-.584-.779-.78-.779-2.049 0-2.829.78-.779 2.049-.779 2.829 0 .779.78.779 2.049 0 2.829-.39.389-.903.584-1.415.584z"
     fill="#ffc107"
     id="path68" />
  <path
     d="m12 0c-1.103 0-2 .897-2 2s.897 2 2 2z"
     fill="#dea806"
     id="path70" />
  <path
     d="m12 20c-1.103 0-2 .897-2 2s.897 2 2 2z"
     fill="#dea806"
     id="path72" />
  <path
     d="m22 10c-1.103 0-2 .897-2 2s.897 2 2 2z"
     fill="#dea806"
     id="path74" />
  <path
     d="m3.472 3.558c-.78.78-.78 2.048 0 2.828s2.048.78 2.828 0z"
     fill="#dea806"
     id="path76" />
  <path
     d="m17.614 17.7c-.78.78-.78 2.048 0 2.828s2.048.78 2.828 0z"
     fill="#dea806"
     id="path78" />
  <path
     d="m3.472 17.7c-.78.78-.78 2.048 0 2.828s2.048.78 2.828 0z"
     fill="#dea806"
     id="path80" />
  <path
     d="m17.614 3.558c-.78.78-.78 2.048 0 2.828s2.048.78 2.828 0z"
     fill="#dea806"
     id="path82" />
  <path
     style="fill:#8ac9fe;stroke-width:0.06702732"
     inkscape:connector-curvature="0"
     d="m 17.202317,14.372042 -0.774569,-0.463897 0.440035,-0.11039 c 0.270187,-0.06777 0.43427,-0.341636 0.366506,-0.611825 -0.06777,-0.270321 -0.342108,-0.434671 -0.611826,-0.366505 l -1.418433,0.355776 -1.224722,-0.733479 v -1.188328 l 1.22479,-0.733547 1.418297,0.355782 c 0.04123,0.01044 0.08251,0.01529 0.123131,0.01529 0.22575,-6.8e-5 0.431388,-0.152823 0.488764,-0.381721 0.06777,-0.270186 -0.09625,-0.544126 -0.366437,-0.6118912 L 16.42775,9.7869132 17.202251,9.323017 C 17.441203,9.1798467 17.518887,8.8701798 17.375784,8.6312279 17.232546,8.3922761 16.922948,8.3146574 16.683995,8.4576948 L 15.907082,8.922998 16.016541,8.4868508 c 0.06777,-0.2701869 -0.09625,-0.5441274 -0.366437,-0.6118925 -0.270456,-0.068035 -0.544129,0.096247 -0.611892,0.3664388 l -0.35491,1.4145443 -1.244093,0.7450756 -0.929335,-0.5365538 v -1.440819 l 1.034029,-1.033962 c 0.196994,-0.1969266 0.196994,-0.5163125 6.8e-5,-0.7132377 -0.196925,-0.1969266 -0.516311,-0.1969938 -0.713236,-6.72e-5 l -0.320861,0.3207931 v -0.902859 c 0,-0.2785648 -0.225748,-0.5043128 -0.504313,-0.5043128 -0.278566,0 -0.504314,0.225748 -0.504314,0.5043128 v 0.905673 l -0.31805,-0.3180533 c -0.196993,-0.196858 -0.516244,-0.196858 -0.713305,0 -0.196925,0.1969937 -0.196925,0.5163112 0,0.713305 l 1.031283,1.0312822 V 9.8643875 L 10.57459,10.399333 9.3332426,9.6558657 8.9783337,8.2413214 C 8.9105701,7.9710672 8.6364279,7.8067173 8.366441,7.8748839 8.0962541,7.9426476 7.9322385,8.216588 8.0000036,8.4867764 L 8.1093922,8.9229222 7.3324774,8.457619 C 7.0935256,8.3145831 6.7837929,8.3922004 6.6406898,8.6311522 6.4975852,8.8701055 6.5752711,9.1797709 6.8142229,9.3229412 L 7.5887241,9.7868375 7.1486216,9.8972269 c -0.2701869,0.067764 -0.4342025,0.3417051 -0.3664374,0.6118921 0.05744,0.228965 0.2630145,0.38172 0.4887625,0.38172 0.040624,0 0.081906,-0.0049 0.1231301,-0.01528 l 1.4183638,-0.355786 1.2192274,0.730196 v 1.19503 l -1.21916,0.730195 -1.4184312,-0.355779 c -0.2699868,-0.06796 -0.5441289,0.09624 -0.6118254,0.366504 -0.067764,0.270187 0.096247,0.544061 0.3665046,0.611825 l 0.4400338,0.11039 -0.7744996,0.463896 c -0.2389533,0.14317 -0.3166378,0.452837 -0.1735347,0.691789 0.094574,0.157782 0.2616747,0.245253 0.4331316,0.245253 0.088211,0 0.1774883,-0.02312 0.2586575,-0.07173 l 0.7769134,-0.4653 -0.1093886,0.436145 c -0.067764,0.270188 0.096247,0.544128 0.3664389,0.611893 0.041224,0.01044 0.082449,0.01528 0.12313,0.01528 0.2257476,0 0.4313208,-0.152823 0.4887638,-0.381721 l 0.3548425,-1.414544 1.2331674,-0.738573 0.937513,0.541244 v 1.429425 l -1.034098,1.034097 c -0.196926,0.196994 -0.196926,0.516245 0,0.713306 0.09853,0.09846 0.227624,0.14766 0.356652,0.14766 0.129021,0 0.258122,-0.04926 0.356652,-0.14766 L 11.503925,16.6978 v 0.902791 c 0,0.278566 0.225748,0.504314 0.504314,0.504314 0.278565,0 0.504313,-0.225748 0.504313,-0.504314 v -0.905674 l 0.318044,0.318045 c 0.196994,0.19686 0.516244,0.19686 0.713303,0 0.196927,-0.196991 0.196927,-0.516244 0,-0.713304 l -1.031281,-1.031267 v -1.429759 l 0.934763,-0.539704 1.235917,0.740181 0.354842,1.414545 c 0.05744,0.228966 0.262947,0.38172 0.488763,0.38172 0.04063,0 0.08197,-0.0049 0.12313,-0.01528 0.270188,-0.06777 0.434204,-0.341706 0.366439,-0.611893 l -0.109461,-0.436147 0.776915,0.465304 c 0.08118,0.04859 0.170451,0.07173 0.258658,0.07173 0.171456,0 0.338623,-0.08747 0.43313,-0.245254 0.143238,-0.238952 0.06555,-0.548619 -0.173399,-0.691789 z m -5.196761,-1.405294 -0.965127,-0.557199 v -1.114396 l 0.965127,-0.557199 0.965059,0.557199 v 1.114396 z"
     id="path30-8" />
</svg>
