<?xml version="1.0" encoding="UTF-8" standalone="no"?>
<svg
   xmlns:dc="http://purl.org/dc/elements/1.1/"
   xmlns:cc="http://creativecommons.org/ns#"
   xmlns:rdf="http://www.w3.org/1999/02/22-rdf-syntax-ns#"
   xmlns:svg="http://www.w3.org/2000/svg"
   xmlns="http://www.w3.org/2000/svg"
   xmlns:sodipodi="http://sodipodi.sourceforge.net/DTD/sodipodi-0.dtd"
   xmlns:inkscape="http://www.inkscape.org/namespaces/inkscape"
   id="Layer_35"
   enable-background="new 0 0 64 64"
   height="512"
   viewBox="0 0 64 64"
   width="512"
   version="1.1"
   sodipodi:docname="LocalSite.svg"
   inkscape:version="0.92.4 (5da689c313, 2019-01-14)">
  <metadata
     id="metadata43">
    <rdf:RDF>
      <cc:Work
         rdf:about="">
        <dc:format>image/svg+xml</dc:format>
        <dc:type
           rdf:resource="http://purl.org/dc/dcmitype/StillImage" />
      </cc:Work>
    </rdf:RDF>
  </metadata>
  <defs
     id="defs41" />
  <sodipodi:namedview
     pagecolor="#ffffff"
     bordercolor="#666666"
     borderopacity="1"
     objecttolerance="10"
     gridtolerance="10"
     guidetolerance="10"
     inkscape:pageopacity="0"
     inkscape:pageshadow="2"
     inkscape:window-width="1920"
     inkscape:window-height="1057"
     id="namedview39"
     showgrid="false"
     inkscape:zoom="0.65186406"
     inkscape:cx="680.58027"
     inkscape:cy="221.69336"
     inkscape:window-x="-8"
     inkscape:window-y="-8"
     inkscape:window-maximized="1"
     inkscape:current-layer="Layer_35" />
  <path
     d="M 33.085023,31.810509 C 31.528268,32.12985 28.299318,31.404591 26.083631,30.503441 24.210981,29.741808 22.756902,28.509705 22.605612,28.20339 L 21.78001,26.737712 21.525917,25 24.129373,42 H 16.319006 C 11.281319,42 7.2069112,38.87 7.2069112,35 v -3 -4 c 0,-4.42 4.6601858,-8 10.4138228,-8 h 1.301727 1.301728 c 1.171555,0.01 2.521602,0.189494 4.236574,0.955255 1.765715,1.691017 2.958893,3.908983 4.897585,4.961186 l 4.36851,1.541186 c 1.701089,0.600135 1.805943,3.850764 -0.641835,4.352882 z"
     id="path2"
     inkscape:connector-curvature="0"
     style="fill:#fcd770;stroke-width:1.14093292"
     sodipodi:nodetypes="ssscccsscssccccss" />
  <path
     d="m 38.448379,30 h 9.112094 c 0.71595,0 1.301728,-0.45 1.301728,-1 V 18 c 0,-0.55 -0.585778,-1 -1.301728,-1 H 43.65529 v -4 h 5.206911 c 2.876818,0 5.206911,1.79 5.206911,4 v 18.17 c -2.108799,-0.68 -3.156433,-0.994954 -5.407436,-1.098604 -1.163114,0.03115 -1.69483,-0.06319 -2.762247,-0.06319 -0.963278,0 -0.959195,0.01236 -1.893462,0.02297 -0.901952,0.01024 -1.636804,-0.01956 -1.636804,-0.01956 L 42.353562,34 h -9.112095 c 0,-2.21 2.330093,-4 5.206912,-4 z"
     id="path4"
     inkscape:connector-curvature="0"
     style="fill:#969faa;stroke-width:1.14093292"
     sodipodi:nodetypes="sssssccssccsscccs" />
  <path
     d="M 35.454405,23.98 C 34.204746,23.83 33.241467,23 33.241467,22 V 18.73 4 c 0,-1.1 1.171555,-2 2.603456,-2 h 5.206911 c 1.431901,0 2.603456,0.9 2.603456,2 v 9 4 5 c 0,1.1 -1.171555,2 -2.603456,2 h -5.206911 c -0.130173,0 -0.260346,-0.01 -0.390518,-0.02 z"
     id="path6"
     inkscape:connector-curvature="0"
     style="fill:#ccd1d9;stroke-width:1.14093292" />
  <path
     d="m 15.017278,46 h 3.905183 v 8 H 13.71555 v -8 -0.05 c 0.42957,0.03 0.859141,0.05 1.301728,0.05 z"
     id="path8"
     inkscape:connector-curvature="0"
     style="fill:#aab2bd;stroke-width:1.14093292" />
  <path
     d="m 29.336284,42 v 4 H 18.922461 15.017278 C 14.574691,46 14.14512,45.98 13.71555,45.95 7.1418248,45.45 2,41.18 2,36 V 26 c 0,-2.21 2.3300928,-4 5.2069112,-4 v 6 4 3 c 0,3.87 4.0744078,7 9.1120948,7 h 7.810367 z"
     id="path10"
     inkscape:connector-curvature="0"
     style="fill:#ccd1d9;stroke-width:1.14093292" />
  <ellipse
     cx="5.9051833"
     cy="60"
     id="circle12"
     rx="2.6034555"
     ry="2"
     style="fill:#838f9b;stroke-width:1.14093292" />
  <ellipse
     cx="26.732828"
     cy="60"
     id="circle14"
     rx="2.6034555"
     ry="2"
     style="fill:#838f9b;stroke-width:1.14093292" />
  <circle
     cx="20.226322"
     cy="12.1875"
     id="circle26"
     style="fill:#f0d0b4;stroke-width:1.30208337"
     r="7.8125" />
  <rect
     style="fill:#d3a06c;fill-opacity:1;stroke-width:0.14261661"
     id="rect45"
     width="31.465899"
     height="23.986544"
     x="29.211473"
     y="37.904121" />
  <rect
     style="fill:#b27946;fill-opacity:1;stroke-width:0.14261661"
     id="rect47"
     width="36.815136"
     height="4.0168219"
     x="26.608019"
     y="34" />
  <path
     style="fill:#000000;stroke-width:1.14093292"
     inkscape:connector-curvature="0"
     id="path49"
     d="m 32.991851,40.520606 h 2.603455 v 2 h -2.603455 z" />
  <path
     style="fill:#000000;stroke-width:1.14093292"
     inkscape:connector-curvature="0"
     id="path51"
     d="m 32.991851,44.520606 h 2.603455 v 2 h -2.603455 z" />
  <path
     style="fill:#000000;stroke-width:1.14093292"
     inkscape:connector-curvature="0"
     id="path53"
     d="m 32.991851,48.520606 h 2.603455 v 2 h -2.603455 z" />
</svg>
