<?xml version="1.0" encoding="UTF-8" standalone="no"?>
<svg
   xmlns:dc="http://purl.org/dc/elements/1.1/"
   xmlns:cc="http://creativecommons.org/ns#"
   xmlns:rdf="http://www.w3.org/1999/02/22-rdf-syntax-ns#"
   xmlns:svg="http://www.w3.org/2000/svg"
   xmlns="http://www.w3.org/2000/svg"
   xmlns:sodipodi="http://sodipodi.sourceforge.net/DTD/sodipodi-0.dtd"
   xmlns:inkscape="http://www.inkscape.org/namespaces/inkscape"
   viewBox="-42 0 492.40457 508.06366"
   version="1.1"
   id="svg10"
   sodipodi:docname="Logout.svg"
   width="492.40457"
   height="508.06366"
   inkscape:version="0.92.4 (5da689c313, 2019-01-14)">
  <metadata
     id="metadata16">
    <rdf:RDF>
      <cc:Work
         rdf:about="">
        <dc:format>image/svg+xml</dc:format>
        <dc:type
           rdf:resource="http://purl.org/dc/dcmitype/StillImage" />
        <dc:title></dc:title>
      </cc:Work>
    </rdf:RDF>
  </metadata>
  <defs
     id="defs14" />
  <sodipodi:namedview
     pagecolor="#ffffff"
     bordercolor="#666666"
     borderopacity="1"
     objecttolerance="10"
     gridtolerance="10"
     guidetolerance="10"
     inkscape:pageopacity="0"
     inkscape:pageshadow="2"
     inkscape:window-width="1920"
     inkscape:window-height="1057"
     id="namedview12"
     showgrid="false"
     fit-margin-top="0"
     fit-margin-left="0"
     fit-margin-right="0"
     fit-margin-bottom="0"
     inkscape:zoom="0.4609375"
     inkscape:cx="255.30946"
     inkscape:cy="253.85997"
     inkscape:window-x="-8"
     inkscape:window-y="-8"
     inkscape:window-maximized="1"
     inkscape:current-layer="svg10" />
  <path
     inkscape:connector-curvature="0"
     style="fill:#07485e;stroke-width:0.99231017"
     d="m 285.46236,14.89265 v 418.75491 c 0,8.33385 -6.54692,14.88465 -14.88465,14.88465 H 151.50049 c -8.33773,0 -14.88466,-6.5508 -14.88466,-14.88465 L -42,14.89265 C -42,6.5549253 -35.453082,0.00799599 -27.115357,0.00799599 H 270.57771 c 8.33773,0 14.88465,6.54692931 14.88465,14.88465401 z m 0,0"
     id="path2-6" />
  <path
     inkscape:connector-curvature="0"
     style="fill:#03232e;stroke-width:0.99231017"
     d="m 285.46236,14.89265 v 418.75491 c 0,8.33385 -6.54692,14.88465 -14.88465,14.88465 H 151.50049 c -8.33773,0 -14.88466,-6.5508 -14.88466,-14.88465 L 91.961871,329.45498 V 0.00799599 H 270.57771 c 8.33773,0 14.88465,6.54692931 14.88465,14.88465401 z m 0,0"
     id="path4-8" />
  <g
     id="g854"
     transform="matrix(0.76054039,0,0,0.76054039,125.52607,14.89265)">
    <path
       id="path2"
       d="m 333.67187,123.30859 c 0,33.88672 -12.15234,63.21875 -36.125,87.19532 -23.97265,23.97265 -53.30859,36.125 -87.19531,36.125 h -0.0586 c -33.84375,-0.0117 -63.16016,-12.16407 -87.13281,-36.125 -23.976566,-23.97657 -36.125004,-53.3086 -36.125004,-87.19532 0,-33.874996 12.148438,-63.210934 36.125004,-87.18359 C 147.12109,12.160156 176.4375,0.0117188 210.29297,0 h 0.0586 c 33.875,0 63.21094,12.152344 87.19531,36.125 23.97266,23.972656 36.125,53.308594 36.125,87.18359 z m 0,0"
       inkscape:connector-curvature="0"
       style="fill:#ffbb85" />
    <path
       id="path4"
       d="m 427.16797,423.94531 c 0,26.73438 -8.50391,48.37891 -25.25391,64.32031 C 385.35937,504.01953 363.46484,512 336.84375,512 H 90.3125 C 63.691406,512 41.796875,504.01953 25.253906,488.26562 8.492188,472.3125 0,450.67187 0,423.94531 c 0,-10.28125 0.339844,-20.45312 1.019531,-30.23437 0.691407,-10 2.089844,-20.88282 4.152344,-32.36328 2.078125,-11.57422 4.75,-22.51563 7.949219,-32.51563 3.320312,-10.35156 7.8125,-20.5625 13.371094,-30.34375 5.773437,-10.15234 12.554687,-18.99609 20.15625,-26.27734 7.96875,-7.6211 17.710937,-13.74219 28.972656,-18.20313 11.222656,-4.4375 23.664062,-6.6875 36.976566,-6.6875 5.22265,0 10.28125,2.13672 20.03125,8.48828 6.10156,3.98047 13.13281,8.51172 20.89453,13.47266 6.70312,4.27344 15.78125,8.28125 27.0039,11.90234 9.86328,3.19141 19.875,4.97266 29.76563,5.28125 1.08984,0.0391 2.17969,0.0586 3.26953,0.0586 10.98437,0 22.09375,-1.80078 33.04687,-5.33985 11.22266,-3.62109 20.3125,-7.6289 27.01172,-11.90234 7.84375,-5.01172 14.875,-9.53906 20.88672,-13.46094 9.75781,-6.36328 14.8086,-8.5 20.04297,-8.5 13.30078,0 25.74219,2.25 36.97266,6.6875 11.26172,4.46094 21.0039,10.59375 28.96484,18.20313 7.61328,7.28125 14.39453,16.125 20.16406,26.27734 5.5625,9.78906 10.0625,19.99219 13.3711,30.33203 3.20312,10.01172 5.88281,20.95313 7.96093,32.53516 2.05079,11.49219 3.45313,22.375 4.14063,32.34766 0.69141,9.75 1.03125,19.92187 1.04297,30.24218 z m 0,0"
       inkscape:connector-curvature="0"
       style="fill:#6aa9ff" />
    <path
       id="path6"
       d="m 210.35156,246.62891 h -0.0586 V 0 h 0.0586 c 33.875,0 63.21094,12.152344 87.19531,36.125 23.97266,23.972656 36.125,53.308594 36.125,87.18359 0,33.88672 -12.15234,63.21875 -36.125,87.19532 -23.97265,23.97265 -53.30859,36.125 -87.19531,36.125 z m 0,0"
       inkscape:connector-curvature="0"
       style="fill:#f5a86c" />
    <path
       id="path8"
       d="m 427.16797,423.94531 c 0,26.73438 -8.50391,48.37891 -25.25391,64.32031 C 385.35937,504.01953 363.46484,512 336.84375,512 H 210.29297 V 286.46484 c 1.08984,0.0391 2.17969,0.0586 3.26953,0.0586 10.98437,0 22.09375,-1.80078 33.04687,-5.33985 11.22266,-3.62109 20.3125,-7.6289 27.01172,-11.90234 7.84375,-5.01172 14.875,-9.53906 20.88672,-13.46094 9.75781,-6.36328 14.8086,-8.5 20.04297,-8.5 13.30078,0 25.74219,2.25 36.97266,6.6875 11.26172,4.46094 21.0039,10.59375 28.96484,18.20313 7.61328,7.28125 14.39453,16.125 20.16406,26.27734 5.5625,9.78906 10.0625,19.99219 13.3711,30.33203 3.20312,10.01172 5.88281,20.95313 7.96093,32.53516 2.05079,11.49219 3.45313,22.375 4.14063,32.34765 0.69141,9.75 1.03125,19.92188 1.04297,30.24219 z m 0,0"
       inkscape:connector-curvature="0"
       style="fill:#2682ff" />
  </g>
  <path
     inkscape:connector-curvature="0"
     style="fill:#ff8859;stroke-width:0.99231017"
     d="M 158.0474,90.804382 -20.568428,1.4964603 C -25.029954,-0.58894301 -30.689214,-0.58894301 -34.856143,2.0933993 -39.321546,5.0664501 -42,9.8303183 -42,14.89265 v 418.75491 c 0,6.54692 4.166929,12.20618 10.120786,13.98925 l 123.841085,41.38243 54.774749,18.15618 c 4.384,1.75593 10.00062,0.76362 13.39619,-1.78306 3.87233,-2.97694 6.25233,-7.44232 6.25233,-12.20619 V 104.20056 c 0,-5.655383 -3.27539,-10.717714 -8.33774,-13.396178 z m 0,0"
     id="path6-3" />
  <path
     inkscape:connector-curvature="0"
     style="fill:#ff3939;stroke-width:0.99231017"
     d="m 166.38514,104.20056 v 388.98561 c 0,4.76387 -2.38387,9.22925 -6.25233,12.20619 -3.36456,2.52341 -8.96955,3.55836 -13.39619,1.78306 L 91.961871,489.01924 V 57.759682 l 66.085529,33.0447 c 5.06235,2.678464 8.33774,7.740795 8.33774,13.396178 z m 0,0"
     id="path8-1" />
  <path
     inkscape:connector-curvature="0"
     style="fill:#fff5f5;stroke-width:0.99231017"
     d="m 106.84653,225.26242 v 59.53861 c 0,8.33386 -6.54693,14.88465 -14.884659,14.88465 -8.337724,0 -14.884653,-6.55079 -14.884653,-14.88465 v -59.53861 c 0,-8.33774 6.546929,-14.88466 14.884653,-14.88466 8.337729,0 14.884659,6.54692 14.884659,14.88466 z m 0,0"
     id="path12" />
  <path
     inkscape:connector-curvature="0"
     style="fill:#efe2dd;stroke-width:0.99231017"
     d="m 106.84653,225.26242 v 59.53861 c 0,8.33386 -6.54693,14.88465 -14.884659,14.88465 v -89.30792 c 8.337729,0 14.884659,6.54692 14.884659,14.88466 z m 0,0"
     id="path14" />
</svg>
