<?xml version="1.0" encoding="UTF-8" standalone="no"?>
<!-- Generator: Adobe Illustrator 19.0.0, SVG Export Plug-In . SVG Version: 6.00 Build 0)  -->

<svg
   xmlns:dc="http://purl.org/dc/elements/1.1/"
   xmlns:cc="http://creativecommons.org/ns#"
   xmlns:rdf="http://www.w3.org/1999/02/22-rdf-syntax-ns#"
   xmlns:svg="http://www.w3.org/2000/svg"
   xmlns="http://www.w3.org/2000/svg"
   xmlns:sodipodi="http://sodipodi.sourceforge.net/DTD/sodipodi-0.dtd"
   xmlns:inkscape="http://www.inkscape.org/namespaces/inkscape"
   version="1.1"
   id="Capa_1"
   x="0px"
   y="0px"
   viewBox="0 0 512 512"
   style="enable-background:new 0 0 512 512;"
   xml:space="preserve"
   sodipodi:docname="move.svg"
   inkscape:version="0.92.4 (5da689c313, 2019-01-14)"><metadata
   id="metadata57"><rdf:RDF><cc:Work
       rdf:about=""><dc:format>image/svg+xml</dc:format><dc:type
         rdf:resource="http://purl.org/dc/dcmitype/StillImage" /></cc:Work></rdf:RDF></metadata><defs
   id="defs55" /><sodipodi:namedview
   pagecolor="#ffffff"
   bordercolor="#666666"
   borderopacity="1"
   objecttolerance="10"
   gridtolerance="10"
   guidetolerance="10"
   inkscape:pageopacity="0"
   inkscape:pageshadow="2"
   inkscape:window-width="1920"
   inkscape:window-height="1057"
   id="namedview53"
   showgrid="false"
   inkscape:zoom="0.4609375"
   inkscape:cx="256"
   inkscape:cy="256"
   inkscape:window-x="-8"
   inkscape:window-y="-8"
   inkscape:window-maximized="1"
   inkscape:current-layer="Capa_1" />
<circle
   style="fill:#D6E370;"
   cx="256"
   cy="256"
   r="98.462"
   id="circle2" />
<g
   id="g12">
	<path
   style="fill:#76B888;"
   d="M196.923,177.227c16.457-12.362,36.91-19.688,59.077-19.688s42.621,7.327,59.077,19.688V98.462   h39.385L256,9.846l-98.462,88.615h39.385V177.227z"
   id="path4" />
	<path
   style="fill:#76B888;"
   d="M196.923,334.774c16.457,12.361,36.91,19.687,59.077,19.687s42.621-7.327,59.077-19.688v78.765   h39.385L256,502.154l-98.462-88.615h39.385V334.774z"
   id="path6" />
	<path
   style="fill:#76B888;"
   d="M177.227,315.077c-12.362-16.456-19.688-36.91-19.688-59.077s7.327-42.621,19.688-59.077H98.461   v-39.385L9.846,256l88.615,98.462v-39.385H177.227z"
   id="path8" />
	<path
   style="fill:#76B888;"
   d="M334.774,315.077c12.361-16.456,19.687-36.91,19.687-59.077s-7.327-42.621-19.688-59.077h78.765   v-39.385L502.154,256l-88.615,98.462v-39.385H334.774z"
   id="path10" />
</g>




<g
   id="g22">
</g>
<g
   id="g24">
</g>
<g
   id="g26">
</g>
<g
   id="g28">
</g>
<g
   id="g30">
</g>
<g
   id="g32">
</g>
<g
   id="g34">
</g>
<g
   id="g36">
</g>
<g
   id="g38">
</g>
<g
   id="g40">
</g>
<g
   id="g42">
</g>
<g
   id="g44">
</g>
<g
   id="g46">
</g>
<g
   id="g48">
</g>
<g
   id="g50">
</g>
</svg>