<?xml version="1.0" encoding="iso-8859-1"?>
<!-- Generator: Adobe Illustrator 19.0.0, SVG Export Plug-In . SVG Version: 6.00 Build 0)  -->
<svg version="1.1" id="Capa_1" xmlns="http://www.w3.org/2000/svg" xmlns:xlink="http://www.w3.org/1999/xlink" x="0px" y="0px"
	 viewBox="0 0 512 512" style="enable-background:new 0 0 512 512;" xml:space="preserve">
<circle style="fill:#D6E370;" cx="256" cy="256" r="98.462"/>
<g>
	<path style="fill:#76B888;" d="M196.923,177.227c16.457-12.362,36.91-19.688,59.077-19.688s42.621,7.327,59.077,19.688V98.462
		h39.385L256,9.846l-98.462,88.615h39.385V177.227z"/>
	<path style="fill:#76B888;" d="M196.923,334.774c16.457,12.361,36.91,19.687,59.077,19.687s42.621-7.327,59.077-19.688v78.765
		h39.385L256,502.154l-98.462-88.615h39.385V334.774z"/>
	<path style="fill:#76B888;" d="M177.227,315.077c-12.362-16.456-19.688-36.91-19.688-59.077s7.327-42.621,19.688-59.077H98.461
		v-39.385L9.846,256l88.615,98.462v-39.385H177.227z"/>
	<path style="fill:#76B888;" d="M334.774,315.077c12.361-16.456,19.687-36.91,19.687-59.077s-7.327-42.621-19.688-59.077h78.765
		v-39.385L502.154,256l-88.615,98.462v-39.385H334.774z"/>
</g>
<path d="M315.077,246.052c-5.438,0-9.846,4.408-9.846,9.846V256c0,5.438,4.408,9.846,9.846,9.846c5.438,0,9.846-4.408,9.846-9.846
	v-0.102C324.923,250.46,320.515,246.052,315.077,246.052z"/>
<path d="M312.083,234.931c4.704-2.727,6.307-8.752,3.58-13.457c-12.301-21.217-35.163-34.398-59.664-34.398
	c-5.438,0-9.846,4.408-9.846,9.846c0,5.438,4.408,9.846,9.846,9.846c17.503,0,33.836,9.419,42.627,24.582
	c1.826,3.15,5.131,4.909,8.528,4.909C308.83,236.261,310.529,235.832,312.083,234.931z"/>
<path d="M509.472,249.414l-88.615-98.462c-2.728-3.031-7.041-4.067-10.847-2.606c-3.806,1.46-6.318,5.116-6.318,9.192v29.538
	h-64.206c-4.384-5.301-9.262-10.179-14.563-14.563v-64.206h29.538c4.077,0,7.732-2.513,9.192-6.318s0.424-8.119-2.606-10.847
	L262.586,2.528c-3.745-3.37-9.429-3.37-13.173,0l-98.462,88.615c-3.031,2.727-4.066,7.04-2.606,10.847s5.116,6.318,9.193,6.318
	h29.538v64.206c-5.301,4.385-10.179,9.262-14.563,14.563h-64.206v-29.538c0-4.077-2.513-7.732-6.318-9.192
	c-3.808-1.46-8.119-0.424-10.847,2.606L2.527,249.414c-3.369,3.745-3.369,9.429,0,13.173l88.615,98.462
	c1.905,2.116,4.582,3.26,7.322,3.26c1.183,0,2.377-0.214,3.525-0.654c3.807-1.46,6.318-5.116,6.318-9.192v-29.538h64.206
	c4.384,5.301,9.262,10.179,14.563,14.563v64.205h-29.538c-4.077,0-7.732,2.513-9.192,6.318c-1.46,3.806-0.424,8.119,2.606,10.846
	l98.462,88.615c1.872,1.685,4.229,2.528,6.586,2.528c2.357,0,4.714-0.842,6.586-2.528l98.462-88.615
	c3.031-2.727,4.066-7.04,2.606-10.846s-5.115-6.318-9.192-6.318h-29.538v-64.206c5.301-4.384,10.179-9.262,14.563-14.563h64.206
	v29.538c0,4.077,2.513,7.732,6.318,9.192c1.148,0.44,2.342,0.654,3.525,0.654c2.738,0,5.416-1.144,7.322-3.26l88.615-98.462
	C512.843,258.843,512.843,253.159,509.472,249.414z M344.552,259.17c-0.01,0.276-0.02,0.552-0.032,0.827
	c-0.043,0.975-0.099,1.948-0.174,2.916c-0.029,0.366-0.065,0.732-0.097,1.097c-0.053,0.601-0.114,1.2-0.18,1.799
	c-4.54,41.042-37.219,73.721-78.261,78.261c-0.599,0.065-1.198,0.126-1.799,0.18c-0.365,0.032-0.73,0.069-1.097,0.097
	c-0.969,0.074-1.942,0.131-2.916,0.174c-0.276,0.012-0.551,0.022-0.827,0.032c-1.054,0.036-2.109,0.063-3.169,0.063
	c-1.06,0-2.116-0.027-3.169-0.063c-0.276-0.01-0.552-0.02-0.827-0.032c-0.975-0.043-1.948-0.099-2.916-0.174
	c-0.366-0.029-0.732-0.065-1.097-0.097c-0.601-0.053-1.2-0.114-1.799-0.18c-41.042-4.54-73.721-37.219-78.261-78.261
	c-0.065-0.599-0.126-1.198-0.18-1.799c-0.033-0.365-0.069-0.73-0.097-1.097c-0.074-0.969-0.131-1.942-0.174-2.916
	c-0.012-0.276-0.022-0.551-0.032-0.827c-0.036-1.054-0.063-2.109-0.063-3.169s0.027-2.116,0.063-3.169
	c0.01-0.276,0.02-0.552,0.032-0.827c0.043-0.975,0.099-1.948,0.174-2.916c0.029-0.366,0.065-0.732,0.097-1.097
	c0.053-0.601,0.114-1.2,0.18-1.799c4.54-41.042,37.219-73.721,78.261-78.261c0.599-0.065,1.198-0.126,1.799-0.18
	c0.365-0.033,0.73-0.069,1.097-0.097c0.969-0.074,1.942-0.131,2.916-0.174c0.276-0.012,0.551-0.022,0.827-0.031
	c1.054-0.036,2.109-0.063,3.169-0.063c1.06,0,2.116,0.027,3.169,0.063c0.276,0.01,0.552,0.02,0.827,0.031
	c0.975,0.043,1.948,0.099,2.916,0.174c0.366,0.029,0.732,0.065,1.097,0.097c0.601,0.053,1.2,0.114,1.799,0.18
	c41.042,4.54,73.721,37.219,78.261,78.261c0.065,0.599,0.126,1.198,0.18,1.799c0.033,0.365,0.069,0.73,0.097,1.097
	c0.074,0.969,0.131,1.942,0.174,2.916c0.012,0.276,0.022,0.551,0.032,0.827c0.036,1.054,0.063,2.109,0.063,3.169
	S344.59,258.116,344.552,259.17z M206.769,159.487V98.462c0-5.438-4.408-9.846-9.846-9.846h-13.726L256,23.093l72.803,65.522
	h-13.727c-5.438,0-9.846,4.408-9.846,9.846v61.025c-11.804-6.049-24.58-9.825-37.869-11.199c-0.189-0.02-0.379-0.039-0.568-0.058
	c-0.679-0.067-1.359-0.128-2.041-0.182c-0.382-0.031-0.764-0.057-1.147-0.084c-0.555-0.038-1.112-0.076-1.669-0.106
	c-0.558-0.031-1.119-0.052-1.681-0.074c-0.415-0.016-0.831-0.036-1.247-0.047c-0.999-0.028-2.002-0.044-3.008-0.044
	c-1.006,0-2.009,0.017-3.008,0.043c-0.417,0.011-0.832,0.032-1.248,0.047c-0.561,0.022-1.121,0.043-1.681,0.074
	c-0.557,0.03-1.113,0.068-1.669,0.106c-0.383,0.027-0.766,0.053-1.147,0.084c-0.681,0.054-1.362,0.115-2.041,0.182
	c-0.19,0.019-0.379,0.038-0.568,0.058C231.349,149.662,218.573,153.438,206.769,159.487z M159.487,305.231H98.461
	c-5.438,0-9.846,4.408-9.846,9.846v13.726L23.093,256l65.522-72.802v13.726c0,5.438,4.408,9.846,9.846,9.846h61.025
	c-6.049,11.804-9.825,24.58-11.199,37.869c-0.02,0.189-0.039,0.379-0.058,0.568c-0.067,0.679-0.128,1.359-0.182,2.041
	c-0.031,0.382-0.057,0.764-0.084,1.147c-0.038,0.555-0.076,1.112-0.106,1.669c-0.031,0.558-0.052,1.119-0.074,1.681
	c-0.016,0.416-0.036,0.831-0.047,1.248c-0.028,0.999-0.044,2.002-0.044,3.008s0.017,2.009,0.043,3.008
	c0.011,0.417,0.032,0.832,0.047,1.247c0.022,0.561,0.043,1.121,0.074,1.681c0.03,0.557,0.068,1.113,0.106,1.669
	c0.027,0.383,0.053,0.766,0.084,1.147c0.054,0.681,0.115,1.362,0.182,2.041c0.019,0.19,0.038,0.379,0.058,0.568
	C149.661,280.651,153.437,293.428,159.487,305.231z M305.231,352.514v61.024c0,5.438,4.408,9.846,9.846,9.846h13.726L256,488.908
	l-72.802-65.523h13.726c5.438,0,9.846-4.408,9.846-9.846v-61.025c11.804,6.049,24.58,9.826,37.869,11.199
	c0.189,0.02,0.379,0.039,0.568,0.058c0.679,0.067,1.359,0.128,2.041,0.182c0.382,0.031,0.764,0.057,1.147,0.084
	c0.555,0.038,1.112,0.076,1.669,0.106c0.558,0.031,1.12,0.052,1.681,0.074c0.416,0.016,0.831,0.036,1.248,0.047
	c0.999,0.029,2.002,0.044,3.008,0.044c1.006,0,2.009-0.017,3.008-0.043c0.416-0.011,0.832-0.032,1.247-0.047
	c0.561-0.022,1.121-0.043,1.681-0.074c0.557-0.03,1.113-0.068,1.669-0.106c0.383-0.027,0.766-0.053,1.147-0.084
	c0.681-0.054,1.362-0.115,2.041-0.182c0.19-0.019,0.379-0.038,0.568-0.058C280.651,362.339,293.428,358.563,305.231,352.514z
	 M423.384,328.804v-13.727c0-5.438-4.408-9.846-9.846-9.846h-61.025c6.049-11.804,9.825-24.58,11.199-37.869
	c0.02-0.189,0.039-0.379,0.058-0.568c0.067-0.679,0.128-1.359,0.182-2.041c0.031-0.382,0.057-0.764,0.084-1.147
	c0.038-0.555,0.076-1.112,0.106-1.669c0.031-0.558,0.052-1.12,0.074-1.681c0.016-0.415,0.036-0.831,0.047-1.247
	c0.029-0.999,0.044-2.002,0.044-3.008s-0.017-2.009-0.043-3.008c-0.011-0.416-0.031-0.832-0.047-1.247
	c-0.022-0.561-0.043-1.121-0.074-1.681c-0.03-0.557-0.068-1.113-0.106-1.669c-0.027-0.383-0.053-0.766-0.084-1.147
	c-0.029-0.364-0.052-0.73-0.085-1.094h29.978c5.438,0,9.846-4.408,9.846-9.846s-4.408-9.846-9.846-9.846h-33.604
	c-1.918-6.794-4.495-13.384-7.728-19.692h61.024c5.438,0,9.846-4.408,9.846-9.846v-13.726L488.908,256L423.384,328.804z"/>
<path d="M421.464,226.659c-0.63,0.128-1.25,0.315-1.841,0.561c-0.601,0.246-1.172,0.551-1.703,0.906
	c-0.542,0.354-1.044,0.768-1.497,1.221s-0.866,0.955-1.221,1.497c-0.354,0.532-0.66,1.103-0.906,1.703
	c-0.246,0.591-0.443,1.211-0.561,1.841c-0.128,0.63-0.197,1.28-0.197,1.92s0.069,1.29,0.197,1.92c0.118,0.63,0.315,1.25,0.561,1.841
	c0.246,0.601,0.551,1.172,0.906,1.703c0.354,0.542,0.768,1.044,1.221,1.497c0.453,0.453,0.955,0.866,1.497,1.221
	c0.532,0.354,1.103,0.66,1.703,0.906c0.591,0.246,1.211,0.443,1.841,0.571c0.63,0.128,1.28,0.187,1.92,0.187
	c0.64,0,1.29-0.059,1.92-0.187c0.63-0.128,1.25-0.325,1.841-0.571c0.601-0.246,1.172-0.551,1.703-0.906
	c0.542-0.354,1.044-0.768,1.497-1.221c0.453-0.453,0.866-0.955,1.221-1.497c0.354-0.532,0.66-1.103,0.906-1.703
	c0.246-0.591,0.443-1.211,0.571-1.841c0.128-0.63,0.187-1.28,0.187-1.92s-0.059-1.29-0.187-1.92c-0.128-0.63-0.325-1.25-0.571-1.841
	c-0.246-0.601-0.551-1.172-0.906-1.703c-0.354-0.542-0.768-1.044-1.221-1.497s-0.955-0.866-1.497-1.221
	c-0.532-0.354-1.103-0.66-1.703-0.906c-0.591-0.246-1.211-0.433-1.841-0.561C424.034,226.403,422.735,226.403,421.464,226.659z"/>
<g>
</g>
<g>
</g>
<g>
</g>
<g>
</g>
<g>
</g>
<g>
</g>
<g>
</g>
<g>
</g>
<g>
</g>
<g>
</g>
<g>
</g>
<g>
</g>
<g>
</g>
<g>
</g>
<g>
</g>
</svg>
