<?xml version="1.0"?>
<svg xmlns="http://www.w3.org/2000/svg" id="Layer_1" data-name="Layer 1" viewBox="0 0 512 512" width="512" height="512"><title>pin location pointer</title><path d="M386,191.8A130.04,130.04,0,0,1,285.81,318.36L256,450.2,226.19,318.36A130.011,130.011,0,1,1,386,191.8Z" style="fill:#e48e66"/><circle cx="256" cy="191.8" r="100" style="fill:#f8ec7d"/><path d="M256.17,474.23C188.5,474.23,120,459.848,120,432.36c0-11.053,10.583-20.413,31.455-27.819,17.89-6.349,43.032-10.971,70.795-13.015a6,6,0,1,1,.88,11.968C160.963,408.071,132,423.424,132,432.36c0,5.117,10.442,13.155,33.771,19.579,24.1,6.636,56.205,10.291,90.4,10.291,63.623,0,109.065-12.364,121.071-24.578,1.858-1.89,2.786-3.636,2.76-5.189,0-.034,0-.069,0-.1,0-8.812-28.637-23.972-90.1-28.527a6,6,0,1,1,.887-11.966c27.5,2.037,52.417,6.645,70.156,12.974,20.579,7.344,31.029,16.585,31.061,27.47.068,4.871-2.019,9.5-6.2,13.754C369.239,462.911,317.145,474.23,256.17,474.23Z" style="fill:#6fe3ff"/><path d="M256.29,498.71c-59.278,0-115.131-6.39-157.27-17.993C53.867,468.284,30,451.438,30,432c0-16.523,17.451-31.448,50.465-43.161,29.933-10.62,72.1-18.36,118.724-21.793a6,6,0,1,1,.881,11.968C97.4,386.574,42,411.957,42,432c0,12.88,22.507,26.768,60.206,37.148,41.13,11.325,95.852,17.562,154.084,17.562,48.782,0,94.877-4.334,133.3-12.533,36.529-7.794,63-18.555,74.547-30.3,3.956-4.025,5.928-7.986,5.863-11.774,0-.035,0-.069,0-.1,0-19.79-54.791-44.882-156.333-52.407a6,6,0,1,1,.886-11.967c46.185,3.422,87.964,11.137,117.64,21.724,32.548,11.611,49.769,26.338,49.807,42.595.108,7.108-3.022,13.953-9.3,20.344C445.407,480.055,358.439,498.71,256.29,498.71Z" style="fill:#6fe3ff"/></svg>
