<?xml version="1.0" encoding="UTF-8" standalone="no"?>
<svg
   xmlns:dc="http://purl.org/dc/elements/1.1/"
   xmlns:cc="http://creativecommons.org/ns#"
   xmlns:rdf="http://www.w3.org/1999/02/22-rdf-syntax-ns#"
   xmlns:svg="http://www.w3.org/2000/svg"
   xmlns="http://www.w3.org/2000/svg"
   xmlns:sodipodi="http://sodipodi.sourceforge.net/DTD/sodipodi-0.dtd"
   xmlns:inkscape="http://www.inkscape.org/namespaces/inkscape"
   id="Layer_35"
   enable-background="new 0 0 64 64"
   height="512"
   viewBox="0 0 64 64"
   width="512"
   version="1.1"
   sodipodi:docname="access.svg"
   inkscape:version="0.92.4 (5da689c313, 2019-01-14)">
  <metadata
     id="metadata37">
    <rdf:RDF>
      <cc:Work
         rdf:about="">
        <dc:format>image/svg+xml</dc:format>
        <dc:type
           rdf:resource="http://purl.org/dc/dcmitype/StillImage" />
      </cc:Work>
    </rdf:RDF>
  </metadata>
  <defs
     id="defs35" />
  <sodipodi:namedview
     pagecolor="#ffffff"
     bordercolor="#666666"
     borderopacity="1"
     objecttolerance="10"
     gridtolerance="10"
     guidetolerance="10"
     inkscape:pageopacity="0"
     inkscape:pageshadow="2"
     inkscape:window-width="1920"
     inkscape:window-height="1057"
     id="namedview33"
     showgrid="false"
     inkscape:zoom="1.3037281"
     inkscape:cx="371.21119"
     inkscape:cy="226.17666"
     inkscape:window-x="-8"
     inkscape:window-y="-8"
     inkscape:window-maximized="1"
     inkscape:current-layer="Layer_35" />
  <path
     d="m4 48h56v14h-56z"
     fill="#d3a06c"
     id="path2" />
  <path
     d="m62 44v4h-2-56-2v-4h3 16 11 26z"
     fill="#b27946"
     id="path4" />
  <path
     d="m58 32v12h-26v-12h7.39l.06-.06c.58.58 1.2 1.11 1.88 1.56.5.33 1.07.5 1.67.5 1 0 1.94-.5 2.5-1.34.15-.22.27-.46.34-.72l.16.06z"
     fill="#e6e9ed"
     id="path6" />
  <path
     d="m21 44h-16v-23c0-2.21 1.79-4 4-4h4v4h-3c-.55 0-1 .45-1 1v17c0 .55.45 1 1 1h7c2.21 0 4 1.79 4 4z"
     fill="#969faa"
     id="path8" />
  <path
     d="m21 23v7c0 1.1-.9 2-2 2h-2c-2.21 0-4-1.79-4-4v-7-4-11c0-2.21 1.79-4 4-4h2c1.1 0 2 .9 2 2v6.92z"
     fill="#ccd1d9"
     id="path10" />
  <path
     d="m39 15c0 .58.08 1.13.24 1.66 0 .01 0 .03.01.04.6 3.67 2.2 9.66 5.41 11.8.67.45 1.12 1.13 1.28 1.91.11.52.07 1.05-.1 1.53-.07.26-.19.5-.34.72-.56.84-1.5 1.34-2.5 1.34-.6 0-1.17-.17-1.67-.5-.68-.45-1.3-.98-1.88-1.56-2.43-2.47-3.96-5.92-4.92-9.06-4.51-1.21-9.02-1.17-13.53.12v-12.08c1.88-.52 3.98-.92 6-.92 5.55 0 9.87 2.08 10.34 2.32l1.51.75.22.13.2.01c-.18.57-.27 1.17-.27 1.79z"
     fill="#fcd770"
     id="path12" />
  <path
     d="m45 9c3.31 0 6 2.69 6 6s-2.69 6-6 6c-2.72 0-5.02-1.82-5.75-4.3-.01-.01-.01-.03-.01-.04-.16-.53-.24-1.08-.24-1.66 0-.62.09-1.22.27-1.79.76-2.43 3.04-4.21 5.73-4.21z"
     fill="#fcd770"
     id="path14" />
  <path
     d="m35 37h20v-2h-12.002-7.998z"
     id="path18" />
  <path
     d="m53 39h2v2h-2z"
     id="path20" />
  <path
     d="m35 39h16v2h-16z"
     id="path22" />
  <path
     d="m55 51h2v2h-2z"
     id="path24" />
  <path
     d="m55 55h2v2h-2z"
     id="path26" />
  <path
     d="m7 55h2v2h-2z"
     id="path28" />
  <path
     d="m7 51h2v2h-2z"
     id="path30" />
</svg>
