<?xml version="1.0" encoding="UTF-8" standalone="no"?>
<!-- Generator: Adobe Illustrator 18.0.0, SVG Export Plug-In . SVG Version: 6.00 Build 0)  -->

<svg
   xmlns:dc="http://purl.org/dc/elements/1.1/"
   xmlns:cc="http://creativecommons.org/ns#"
   xmlns:rdf="http://www.w3.org/1999/02/22-rdf-syntax-ns#"
   xmlns:svg="http://www.w3.org/2000/svg"
   xmlns="http://www.w3.org/2000/svg"
   xmlns:sodipodi="http://sodipodi.sourceforge.net/DTD/sodipodi-0.dtd"
   xmlns:inkscape="http://www.inkscape.org/namespaces/inkscape"
   version="1.1"
   id="Capa_1"
   x="0px"
   y="0px"
   viewBox="0 0 38.478219 38.995976"
   xml:space="preserve"
   sodipodi:docname="ResetAll.svg"
   inkscape:version="0.92.4 (5da689c313, 2019-01-14)"
   width="38.478218"
   height="38.995975"><metadata
   id="metadata71"><rdf:RDF><cc:Work
       rdf:about=""><dc:format>image/svg+xml</dc:format><dc:type
         rdf:resource="http://purl.org/dc/dcmitype/StillImage" /><dc:title></dc:title></cc:Work></rdf:RDF></metadata><defs
   id="defs69">
	
	

		
		
		
		
		
		
		
	</defs><sodipodi:namedview
   pagecolor="#ffffff"
   bordercolor="#666666"
   borderopacity="1"
   objecttolerance="10"
   gridtolerance="10"
   guidetolerance="10"
   inkscape:pageopacity="0"
   inkscape:pageshadow="2"
   inkscape:window-width="1920"
   inkscape:window-height="1057"
   id="namedview67"
   showgrid="false"
   inkscape:zoom="12.140718"
   inkscape:cx="36.969631"
   inkscape:cy="23.82836"
   inkscape:window-x="-8"
   inkscape:window-y="-8"
   inkscape:window-maximized="1"
   inkscape:current-layer="Capa_1"
   fit-margin-top="0"
   fit-margin-left="0"
   fit-margin-right="0"
   fit-margin-bottom="0" />
<g
   id="g32"
   transform="translate(-6.8777812,-7.0030264)">
		
		
		
			
		
		
		
			
		
	</g>
<g
   id="g36"
   transform="translate(-8.6074977,-7.661966)">
</g>
<g
   id="g38"
   transform="translate(-8.6074977,-7.661966)">
</g>
<g
   id="g40"
   transform="translate(-8.6074977,-7.661966)">
</g>
<g
   id="g42"
   transform="translate(-8.6074977,-7.661966)">
</g>
<g
   id="g44"
   transform="translate(-8.6074977,-7.661966)">
</g>
<g
   id="g46"
   transform="translate(-8.6074977,-7.661966)">
</g>
<g
   id="g48"
   transform="translate(-8.6074977,-7.661966)">
</g>
<g
   id="g50"
   transform="translate(-8.6074977,-7.661966)">
</g>
<g
   id="g52"
   transform="translate(-8.6074977,-7.661966)">
</g>
<g
   id="g54"
   transform="translate(-8.6074977,-7.661966)">
</g>
<g
   id="g56"
   transform="translate(-8.6074977,-7.661966)">
</g>
<g
   id="g58"
   transform="translate(-8.6074977,-7.661966)">
</g>
<g
   id="g60"
   transform="translate(-8.6074977,-7.661966)">
</g>
<g
   id="g62"
   transform="translate(-8.6074977,-7.661966)">
</g>
<g
   id="g64"
   transform="translate(-8.6074977,-7.661966)">
</g>
<g
   id="g69"
   style="fill:#00ff00"
   transform="translate(-8.6074977,-7.661966)"><path
     inkscape:connector-curvature="0"
     id="path4"
     d="M 46.085717,14.65894 H 28.085716 c -0.552,0 -1,-0.447 -1,-1 0,-0.553 0.448,-1 1,-1 h 18.000001 c 0.552,0 1,0.447 1,1 0,0.553 -0.448,1 -1,1 z"
     style="fill:#00ff00" /><path
     inkscape:connector-curvature="0"
     id="path6"
     d="M 46.085717,28.65894 H 28.085716 c -0.552,0 -1,-0.447 -1,-1 0,-0.553 0.448,-1 1,-1 h 18.000001 c 0.552,0 1,0.447 1,1 0,0.553 -0.448,1 -1,1 z"
     style="fill:#00ff00" /><path
     inkscape:connector-curvature="0"
     id="path8"
     d="M 46.085717,42.65894 H 28.085716 c -0.552,0 -1,-0.447 -1,-1 0,-0.553 0.448,-1 1,-1 h 18.000001 c 0.552,0 1,0.447 1,1 0,0.553 -0.448,1 -1,1 z"
     style="fill:#00ff00" /><g
     style="fill:#00ff00"
     transform="matrix(1.4221947,0,0,1.2213938,99.242785,-19.696085)"
     id="g121"><g
       style="fill:#00ff00"
       transform="matrix(0.03325467,0,0,0.03487889,-72.840916,12.725905)"
       id="g6"><path
         inkscape:connector-curvature="0"
         style="fill:#00ff00"
         d="m 391.332,512.001 c -64.801,0 -117.333,-52.532 -117.333,-117.333 0,-64.801 52.532,-117.333 117.333,-117.333 49.839,1.057 93.075,34.701 106.347,82.752 1.426,5.72 -2.056,11.513 -7.776,12.939 -5.72,1.426 -11.513,-2.056 -12.939,-7.776 v 0 c -11.136,-38.381 -45.691,-65.248 -85.632,-66.581 -53.019,0 -96,42.981 -96,96 0,53.019 42.981,96 96,96 5.891,0 10.667,4.776 10.667,10.667 -0.001,5.889 -4.776,10.665 -10.667,10.665 z"
         id="path2-2" /><path
         inkscape:connector-curvature="0"
         style="fill:#00ff00"
         d="m 497.998,384.001 h -64 c -5.891,0 -10.667,-4.776 -10.667,-10.667 0,-5.891 4.776,-10.667 10.667,-10.667 h 53.333 v -53.333 c 0,-5.891 4.776,-10.667 10.667,-10.667 5.891,0 10.667,4.776 10.667,10.667 v 64 c 0,5.891 -4.776,10.667 -10.667,10.667 z"
         id="path4-5" /></g></g><g
     id="g173"
     transform="matrix(1.4221947,0,0,1.2213938,99.242785,9.3029152)"
     style="fill:#00ff00"><g
       id="g171"
       transform="matrix(0.03325467,0,0,0.03487889,-72.840916,12.725905)"
       style="fill:#00ff00"><path
         id="path167"
         d="m 391.332,512.001 c -64.801,0 -117.333,-52.532 -117.333,-117.333 0,-64.801 52.532,-117.333 117.333,-117.333 49.839,1.057 93.075,34.701 106.347,82.752 1.426,5.72 -2.056,11.513 -7.776,12.939 -5.72,1.426 -11.513,-2.056 -12.939,-7.776 v 0 c -11.136,-38.381 -45.691,-65.248 -85.632,-66.581 -53.019,0 -96,42.981 -96,96 0,53.019 42.981,96 96,96 5.891,0 10.667,4.776 10.667,10.667 -0.001,5.889 -4.776,10.665 -10.667,10.665 z"
         style="fill:#00ff00"
         inkscape:connector-curvature="0" /><path
         id="path169"
         d="m 497.998,384.001 h -64 c -5.891,0 -10.667,-4.776 -10.667,-10.667 0,-5.891 4.776,-10.667 10.667,-10.667 h 53.333 v -53.333 c 0,-5.891 4.776,-10.667 10.667,-10.667 5.891,0 10.667,4.776 10.667,10.667 v 64 c 0,5.891 -4.776,10.667 -10.667,10.667 z"
         style="fill:#00ff00"
         inkscape:connector-curvature="0" /></g></g><g
     style="fill:#00ff00"
     transform="matrix(1.4221947,0,0,1.2213938,99.242785,-5.6960848)"
     id="g181"><g
       style="fill:#00ff00"
       transform="matrix(0.03325467,0,0,0.03487889,-72.840916,12.725905)"
       id="g179"><path
         inkscape:connector-curvature="0"
         style="fill:#00ff00"
         d="m 391.332,512.001 c -64.801,0 -117.333,-52.532 -117.333,-117.333 0,-64.801 52.532,-117.333 117.333,-117.333 49.839,1.057 93.075,34.701 106.347,82.752 1.426,5.72 -2.056,11.513 -7.776,12.939 -5.72,1.426 -11.513,-2.056 -12.939,-7.776 v 0 c -11.136,-38.381 -45.691,-65.248 -85.632,-66.581 -53.019,0 -96,42.981 -96,96 0,53.019 42.981,96 96,96 5.891,0 10.667,4.776 10.667,10.667 -0.001,5.889 -4.776,10.665 -10.667,10.665 z"
         id="path175" /><path
         inkscape:connector-curvature="0"
         style="fill:#00ff00"
         d="m 497.998,384.001 h -64 c -5.891,0 -10.667,-4.776 -10.667,-10.667 0,-5.891 4.776,-10.667 10.667,-10.667 h 53.333 v -53.333 c 0,-5.891 4.776,-10.667 10.667,-10.667 5.891,0 10.667,4.776 10.667,10.667 v 64 c 0,5.891 -4.776,10.667 -10.667,10.667 z"
         id="path177" /></g></g></g></svg>