<?xml version="1.0" encoding="UTF-8" standalone="no"?>
<svg
   xmlns:dc="http://purl.org/dc/elements/1.1/"
   xmlns:cc="http://creativecommons.org/ns#"
   xmlns:rdf="http://www.w3.org/1999/02/22-rdf-syntax-ns#"
   xmlns:svg="http://www.w3.org/2000/svg"
   xmlns="http://www.w3.org/2000/svg"
   xmlns:sodipodi="http://sodipodi.sourceforge.net/DTD/sodipodi-0.dtd"
   xmlns:inkscape="http://www.inkscape.org/namespaces/inkscape"
   id="Layer_35"
   enable-background="new 0 0 64 64"
   height="336"
   viewBox="0 0 58.181648 42"
   width="465.45319"
   version="1.1"
   sodipodi:docname="Sites.svg"
   inkscape:version="0.92.4 (5da689c313, 2019-01-14)">
  <metadata
     id="metadata37">
    <rdf:RDF>
      <cc:Work
         rdf:about="">
        <dc:format>image/svg+xml</dc:format>
        <dc:type
           rdf:resource="http://purl.org/dc/dcmitype/StillImage" />
        <dc:title></dc:title>
      </cc:Work>
    </rdf:RDF>
  </metadata>
  <defs
     id="defs35" />
  <sodipodi:namedview
     pagecolor="#ffffff"
     bordercolor="#666666"
     borderopacity="1"
     objecttolerance="10"
     gridtolerance="10"
     guidetolerance="10"
     inkscape:pageopacity="0"
     inkscape:pageshadow="2"
     inkscape:window-width="1920"
     inkscape:window-height="1057"
     id="namedview33"
     showgrid="false"
     inkscape:zoom="0.92187498"
     inkscape:cx="-6.1624668"
     inkscape:cy="87.792833"
     inkscape:window-x="-8"
     inkscape:window-y="-8"
     inkscape:window-maximized="1"
     inkscape:current-layer="Layer_35"
     fit-margin-top="0"
     fit-margin-left="0"
     fit-margin-right="0"
     fit-margin-bottom="0" />
  <path
     d="M 16,42 H 0 V 19 c 0,-2.21 1.79,-4 4,-4 h 4 v 4 H 5 c -0.55,0 -1,0.45 -1,1 v 17 c 0,0.55 0.45,1 1,1 h 7 c 2.21,0 4,1.79 4,4 z"
     id="path8"
     inkscape:connector-curvature="0"
     style="fill:#969faa" />
  <path
     d="m 16,21 v 7 c 0,1.1 -0.9,2 -2,2 H 12 C 9.79,30 8,28.21 8,26 V 19 15 4 C 8,1.79 9.79,0 12,0 h 2 c 1.1,0 2,0.9 2,2 v 6.92 z"
     id="path10"
     inkscape:connector-curvature="0"
     style="fill:#ccd1d9" />
  <g
     id="g880"
     transform="matrix(0.65274083,0,0,0.65274083,73.44372,5.5065248)">
    <path
       id="path2-5"
       d="M -44.018145,10.132194 C -44.41002,8.5648191 -45.06302,6.9974446 -45.84677,5.5608196 l 1.567375,-3.657125 -5.48575,-5.355125 -3.657125,1.567375 c -1.43675,-0.783625 -2.8735,-1.43675 -4.571375,-1.828625 l -1.306125,-3.78775 h -7.706125 l -1.43675,3.78775 c -1.567375,0.391875 -3.13475,1.044875 -4.571375,1.828625 l -3.65725,-1.567375 -5.355125,5.355125 1.567375,3.657125 c -0.783625,1.43675 -1.43675,2.8734995 -1.828625,4.5713744 l -3.78775,1.43675 v 7.706125 l 3.78775,1.43675 c 0.391875,1.567375 1.044875,3.13475 1.828625,4.571375 l -1.567375,3.657125 5.48575,5.355125 3.657125,-1.567375 c 1.43675,0.783625 2.8735,1.43675 4.571375,1.828625 l 1.43675,3.78775 h 7.5755 l 1.43675,-3.78775 c 1.567375,-0.391875 3.13475,-1.044875 4.571375,-1.828625 l 3.657125,1.567375 5.48575,-5.355125 -1.567375,-3.657125 c 0.783625,-1.43675 1.43675,-2.8735 1.828625,-4.571375 l 3.78775,-1.43675 v -7.706125 z m -19.2,14.628625 c -5.2245,0 -9.404125,-4.179625 -9.404125,-9.404125 0,-5.2245 4.179625,-9.4041244 9.404125,-9.4041244 5.2245,0 9.404125,4.1796244 9.404125,9.4041244 0,5.2245 -4.179625,9.404125 -9.404125,9.404125 z"
       style="fill:#84dbff;stroke-width:0.125"
       inkscape:connector-curvature="0" />
    <g
       id="g8"
       transform="matrix(0.125,0,0,0.125,-86.140645,-7.5004304)">
      <path
         id="path4-1"
         d="m 236.669,236.147 c -29.257,29.257 -76.278,29.257 -105.535,0 l -27.167,27.167 c 43.886,43.886 115.984,43.886 159.869,0 43.885,-43.886 43.886,-114.939 0,-159.869 l -27.167,27.167 c 29.258,29.257 29.258,76.278 0,105.535 z"
         style="fill:#54c0eb"
         inkscape:connector-curvature="0" />
      <path
         id="path6-1"
         d="m 103.967,103.445 c -43.886,43.886 -43.886,114.939 0,159.869 l 27.167,-27.167 c -29.257,-29.257 -29.257,-76.278 0,-105.535 29.257,-29.257 76.278,-29.257 105.535,0 l 27.167,-27.167 c -43.885,-43.886 -115.983,-43.886 -159.869,0 z"
         style="fill:#54c0eb"
         inkscape:connector-curvature="0" />
    </g>
    <path
       id="path10-1"
       d="m -41.79777,46.050569 c 0.130625,-0.783625 0.130625,-1.43675 0,-2.220375 l 1.306125,-1.306125 -1.306125,-3.26525 h -1.828625 c -0.391875,-0.5225 -1.044875,-1.044875 -1.567375,-1.567375 v -1.828625 l -3.26525,-1.306125 -1.306125,1.306125 c -0.783625,-0.130625 -1.43675,-0.130625 -2.220375,0 l -1.306125,-1.306125 -3.26525,1.306125 v 1.828625 c -0.5225,0.391875 -1.044875,1.044875 -1.567375,1.567375 h -1.828625 l -1.306125,3.26525 1.306125,1.306125 c -0.130625,0.783625 -0.130625,1.43675 0,2.220375 l -1.306125,1.306125 1.306125,3.26525 h 1.828625 c 0.391875,0.5225 1.044875,1.044875 1.567375,1.567375 v 1.828625 l 3.26525,1.306125 1.306125,-1.306125 c 0.783625,0.130625 1.43675,0.130625 2.220375,0 l 1.306125,1.306125 3.26525,-1.306125 v -1.828625 c 0.5225,-0.391875 1.044875,-1.044875 1.567375,-1.567375 h 1.828625 l 1.306125,-3.26525 z m -10.449,2.742875 c -2.220375,-0.91425 -3.26525,-3.395875 -2.351,-5.48575 0.91425,-2.220375 3.395875,-3.26525 5.48575,-2.351 2.220375,0.91425 3.26525,3.395875 2.351,5.48575 -0.914375,2.220375 -3.396,3.26525 -5.48575,2.351 z"
       style="fill:#4cdbc4;stroke-width:0.125"
       inkscape:connector-curvature="0" />
    <path
       id="path12-4"
       d="m -24.687645,28.940444 c 0.130625,-0.783625 0.130625,-1.43675 0,-2.220375 l 1.306125,-1.306125 -1.306125,-3.26525 h -1.828625 c -0.391875,-0.5225 -1.044875,-1.044875 -1.567375,-1.567375 v -1.828625 l -3.26525,-1.306125 -1.306125,1.306125 c -0.783625,-0.130625 -1.43675,-0.130625 -2.220375,0 l -1.306125,-1.306125 -3.26525,1.306125 v 1.828625 c -0.5225,0.391875 -1.044875,1.044875 -1.567375,1.567375 h -1.828625 l -1.306125,3.26525 1.306125,1.306125 c -0.130625,0.783625 -0.130625,1.43675 0,2.220375 l -1.306125,1.306125 1.306125,3.26525 h 1.828625 c 0.391875,0.5225 1.044875,1.044875 1.567375,1.567375 v 1.828625 l 3.26525,1.306125 1.306125,-1.306125 c 0.783625,0.130625 1.43675,0.130625 2.220375,0 l 1.306125,1.306125 3.26525,-1.306125 v -1.828625 c 0.5225,-0.391875 1.044875,-1.044875 1.567375,-1.567375 h 1.828625 l 1.306125,-3.26525 z m -10.5795,2.873375 c -2.220375,-0.91425 -3.26525,-3.395875 -2.351,-5.48575 0.91425,-2.220375 3.395875,-3.26525 5.48575,-2.351 2.220375,0.91425 3.26525,3.395875 2.351,5.48575 -0.78375,2.220375 -3.265375,3.265375 -5.48575,2.351 z"
       style="fill:#ff7058;stroke-width:0.125"
       inkscape:connector-curvature="0" />
  </g>
  <g
     transform="matrix(0.125,0,0,0.125,-91.140645,-9.5004304)"
     id="g14" />
  <g
     transform="matrix(0.125,0,0,0.125,-91.140645,-9.5004304)"
     id="g16" />
  <g
     transform="matrix(0.125,0,0,0.125,-91.140645,-9.5004304)"
     id="g18" />
  <g
     transform="matrix(0.125,0,0,0.125,-91.140645,-9.5004304)"
     id="g20" />
  <g
     transform="matrix(0.125,0,0,0.125,-91.140645,-9.5004304)"
     id="g22" />
  <g
     transform="matrix(0.125,0,0,0.125,-91.140645,-9.5004304)"
     id="g24" />
  <g
     transform="matrix(0.125,0,0,0.125,-91.140645,-9.5004304)"
     id="g26" />
  <g
     transform="matrix(0.125,0,0,0.125,-91.140645,-9.5004304)"
     id="g28" />
  <g
     transform="matrix(0.125,0,0,0.125,-91.140645,-9.5004304)"
     id="g30" />
  <g
     transform="matrix(0.125,0,0,0.125,-91.140645,-9.5004304)"
     id="g32" />
  <g
     transform="matrix(0.125,0,0,0.125,-91.140645,-9.5004304)"
     id="g34" />
  <g
     transform="matrix(0.125,0,0,0.125,-91.140645,-9.5004304)"
     id="g36" />
  <g
     transform="matrix(0.125,0,0,0.125,-91.140645,-9.5004304)"
     id="g38" />
  <g
     transform="matrix(0.125,0,0,0.125,-91.140645,-9.5004304)"
     id="g40" />
  <g
     transform="matrix(0.125,0,0,0.125,-91.140645,-9.5004304)"
     id="g42" />
</svg>
