<svg id="Layer_1" enable-background="new 0 0 64 64" height="512" viewBox="0 0 64 64" width="512" xmlns="http://www.w3.org/2000/svg"><path d="m10.38 3.203c-3.946 0-7.145 3.199-7.145 7.144 0 3.946 3.198 7.144 7.145 7.144 3.944 0 7.142-3.197 7.142-7.144 0-3.945-3.198-7.144-7.142-7.144zm0 11.266c-2.276 0-4.122-1.846-4.122-4.122s1.846-4.122 4.122-4.122c2.274 0 4.121 1.846 4.121 4.122s-1.847 4.122-4.121 4.122z" fill="#f8f3f3"/><path d="m10.38 17.99c-4.215 0-7.645-3.429-7.645-7.643 0-4.215 3.429-7.645 7.645-7.645 4.214 0 7.643 3.429 7.643 7.645-.001 4.215-3.429 7.643-7.643 7.643zm0-14.287c-3.664 0-6.645 2.981-6.645 6.645 0 3.663 2.981 6.643 6.645 6.643 3.663 0 6.643-2.98 6.643-6.643-.001-3.664-2.981-6.645-6.643-6.645zm0 11.266c-2.549 0-4.622-2.073-4.622-4.622s2.073-4.622 4.622-4.622c2.548 0 4.621 2.073 4.621 4.622s-2.073 4.622-4.621 4.622zm0-8.243c-1.997 0-3.622 1.625-3.622 3.622s1.625 3.622 3.622 3.622 3.621-1.625 3.621-3.622-1.625-3.622-3.621-3.622z" fill="#63312d"/><path d="m40.449 54.046c-8.68 0-14.97-6.751-14.97-17.457 0-10.707 6.29-17.389 14.97-17.389 5.221 0 9.372 2.387 11.699 7.433h8.616c-3.333-9.275-11.195-14.252-20.315-14.252-.037 0-.073.002-.11.002v-.002h-6.062v.884c-9.326 2.732-16.155 11.605-16.155 23.325 0 11.745 6.794 20.566 16.083 23.309v.898h6.062v-.003c.061 0 .121.004.183.004 9.12 0 16.982-4.91 20.315-14.184h-8.616c-2.328 5.045-6.479 7.432-11.7 7.432z" fill="#52b8d9"/><path d="m40.449 61.297c-.006 0-.109-.002-.115-.002v-.003c-.022.003-.044.004-.067.004h-6.062c-.276 0-.5-.224-.5-.5v-.528c-9.783-3.064-16.083-12.314-16.083-23.679 0-11.384 6.327-20.642 16.155-23.696v-.512c0-.276.224-.5.5-.5h6.173c9.734 0 17.504 5.452 20.786 14.583.055.153.032.323-.062.457-.094.133-.247.212-.409.212h-8.616c-.195 0-.373-.113-.454-.291-2.155-4.673-6.044-7.142-11.246-7.142-8.655 0-14.47 6.788-14.47 16.89 0 10.143 5.815 16.957 14.47 16.957 5.202 0 9.09-2.47 11.245-7.142.082-.177.259-.291.454-.291h8.616c.163 0 .315.079.409.212.093.133.116.304.062.457-3.267 9.089-11.037 14.514-20.786 14.514zm-.001-.504h.001v-.496c9.066 0 16.34-4.913 19.593-13.184h-7.577c-2.356 4.864-6.504 7.433-12.016 7.433-9.253 0-15.47-7.216-15.47-17.957 0-10.7 6.217-17.89 15.47-17.89 5.512 0 9.66 2.568 12.016 7.433h7.577c-3.266-8.313-10.54-13.252-19.593-13.252l-.11.002-5.562-.002v.383c0 .222-.146.417-.359.48-9.596 2.811-15.796 11.778-15.796 22.845 0 11.048 6.172 20.009 15.725 22.829.212.062.358.258.358.479v.399h5.505c.021-.002.054.003.062-.003z" fill="#63312d"/><path d="m34.449 12.381c9.12 0 16.982 4.978 20.315 14.252h-8.616c-2.327-5.046-6.478-7.433-11.699-7.433-8.68 0-14.97 6.683-14.97 17.389s6.29 17.457 14.97 17.457c5.221 0 9.372-2.387 11.699-7.433h8.616c-3.333 9.273-11.195 14.184-20.315 14.184-12.328 0-22.328-9.957-22.328-24.208 0-14.184 10-24.208 22.328-24.208z" fill="#84dbff"/><path d="m14.121 36.589c0-13.741 9.385-23.578 21.179-24.179-.284-.01-.565-.029-.851-.029-12.328 0-22.328 10.024-22.328 24.209 0 14.251 10 24.208 22.328 24.208.287 0 .569-.019.854-.029-11.796-.597-21.182-10.373-21.182-24.18z" fill="#caf4ff"/><path d="m34.449 61.297c-13.014 0-22.828-10.622-22.828-24.708s9.814-24.708 22.828-24.708c9.734 0 17.504 5.452 20.786 14.583.055.153.032.323-.062.457-.094.133-.247.212-.409.212h-8.616c-.195 0-.373-.113-.454-.291-2.154-4.673-6.043-7.142-11.245-7.142-8.655 0-14.47 6.788-14.47 16.89 0 10.143 5.815 16.957 14.47 16.957 5.202 0 9.09-2.47 11.245-7.142.082-.177.259-.291.454-.291h8.616c.163 0 .315.079.409.212.093.133.116.304.062.457-3.267 9.089-11.037 14.514-20.786 14.514zm0-48.416c-12.444 0-21.828 10.192-21.828 23.708s9.384 23.708 21.828 23.708c9.066 0 16.34-4.913 19.593-13.184h-7.577c-2.356 4.864-6.504 7.433-12.016 7.433-9.253 0-15.47-7.216-15.47-17.957 0-10.7 6.217-17.89 15.47-17.89 5.512 0 9.66 2.568 12.016 7.433h7.577c-3.265-8.312-10.54-13.251-19.593-13.251z" fill="#63312d"/></svg>