<?xml version="1.0"?>
<svg xmlns="http://www.w3.org/2000/svg" id="Layer_1" data-name="Layer 1" viewBox="0 0 512 512" width="512" height="512"><title>road map upload travel map</title><circle cx="76.99" cy="292.9" r="20" style="fill:#6fe3ff"/><circle cx="332.58" cy="248.11" r="20" style="fill:#6fe3ff"/><path d="M381,278a109.92,109.92,0,1,1-101.56,67.68A110,110,0,0,1,381,278Z" style="fill:#6fe3ff"/><polygon points="141 264.76 141 64 261 14 261 105.41 261 338 141 388 141 264.76" style="fill:#f8ec7d"/><path d="M261,105.41V14L381,64V278a110.038,110.038,0,0,0-101.56,67.68L261,338Zm91.58,142.7a20,20,0,1,0-20,20A20,20,0,0,0,352.58,248.11Z" style="fill:#e48e66"/><path d="M141,264.76V388L21,338V14L141,64ZM96.99,292.9a20,20,0,1,0-20,20A19.994,19.994,0,0,0,96.99,292.9Z" style="fill:#e48e66"/><path d="M425.088,372.478l-40-37.23a6,6,0,0,0-8.176,0l-40,37.23a6,6,0,1,0,8.176,8.784L375,353.421V436.36a6,6,0,0,0,12,0V353.421l29.912,27.841a6,6,0,0,0,8.176-8.784Z" style="fill:#2561a1"/><path d="M224.473,232.517a6,6,0,0,0-8.485,0L205.23,243.275l-10.757-10.758A6,6,0,0,0,185.988,241l10.758,10.758-10.758,10.757A6,6,0,1,0,194.473,271l10.757-10.757L215.988,271a6,6,0,0,0,8.485-8.485L213.715,251.76,224.473,241A6,6,0,0,0,224.473,232.517Z" style="fill:#6fe3ff"/><path d="M177.66,308.985V297.4a38.614,38.614,0,0,0-5.97-20.66,6,6,0,0,0-10.144,6.411,26.633,26.633,0,0,1,4.114,14.25v11.585a6,6,0,0,0,12,0Z" style="fill:#6fe3ff"/><path d="M205.091,314.626a6,6,0,0,0-7.407,4.14,10.214,10.214,0,0,1-15.206,5.88,6,6,0,1,0-6.35,10.181,22.22,22.22,0,0,0,33.1-12.794A6,6,0,0,0,205.091,314.626Z" style="fill:#6fe3ff"/><path d="M112.25,231.99v-22.5a6,6,0,0,0-12,0v22.5a38.934,38.934,0,0,0,1,8.79,6,6,0,1,0,11.689-2.716A26.827,26.827,0,0,1,112.25,231.99Z" style="fill:#6fe3ff"/><path d="M76.99,214.16a6,6,0,0,0-6,6v30a6,6,0,1,0,12,0v-30A6,6,0,0,0,76.99,214.16Z" style="fill:#6fe3ff"/><path d="M105.321,191.518a6,6,0,0,0-1.041-8.421A20.626,20.626,0,0,0,71.324,195.67a6,6,0,1,0,11.807,2.149,8.617,8.617,0,0,1,8.489-7.069,8.5,8.5,0,0,1,5.279,1.809A6,6,0,0,0,105.321,191.518Z" style="fill:#6fe3ff"/><path d="M150.084,260.318a38.425,38.425,0,0,0-8.639-1.542c-.782-.058-1.594-.086-2.485-.086a26.522,26.522,0,0,1-15.635-5.048,6,6,0,1,0-7.031,9.725,38.449,38.449,0,0,0,22.666,7.323c.591,0,1.112.018,1.676.059a26.574,26.574,0,0,1,6,1.064,6,6,0,0,0,3.443-11.5Z" style="fill:#6fe3ff"/><path d="M204.07,277.9a6,6,0,0,0-6,6v13.125a6,6,0,0,0,12,0V283.9A6,6,0,0,0,204.07,277.9Z" style="fill:#6fe3ff"/><path d="M205.23,123.888a6,6,0,0,0,6-6v-30a6,6,0,0,0-12,0v30A6,6,0,0,0,205.23,123.888Z" style="fill:#6fe3ff"/><path d="M240.9,77.819a20.887,20.887,0,0,0-31.531-15.927,6,6,0,1,0,6.18,10.287,8.887,8.887,0,0,1,13.4,6.769,6,6,0,0,0,5.967,5.436c.188,0,.38-.009.571-.028A6,6,0,0,0,240.9,77.819Z" style="fill:#6fe3ff"/><path d="M205.23,230.75a6,6,0,0,0,6-6v-30a6,6,0,0,0-12,0v30A6,6,0,0,0,205.23,230.75Z" style="fill:#6fe3ff"/><path d="M295.807,111.41H314.48a8.843,8.843,0,0,1,6.124,2.45,6,6,0,0,0,8.275-8.69,20.791,20.791,0,0,0-14.4-5.76H295.807a6,6,0,0,0,0,12Z" style="fill:#6fe3ff"/><path d="M205.23,177.319a6,6,0,0,0,6-6v-30a6,6,0,0,0-12,0v30A6,6,0,0,0,205.23,177.319Z" style="fill:#6fe3ff"/><path d="M272.376,99.41H260.6a19.6,19.6,0,0,1-12.8-4.753,6,6,0,1,0-7.84,9.085A31.605,31.605,0,0,0,260.6,111.41h11.776a6,6,0,0,0,0-12Z" style="fill:#6fe3ff"/><path d="M338.089,207.939A38.96,38.96,0,0,0,327.081,186.4a39.447,39.447,0,0,0-8.6-6.509,6,6,0,0,0-5.865,10.47,27.406,27.406,0,0,1,5.979,4.526,27.04,27.04,0,0,1,7.641,14.945,6,6,0,0,0,5.917,5.056,6.146,6.146,0,0,0,.952-.075A6,6,0,0,0,338.089,207.939Z" style="fill:#6fe3ff"/><path d="M295.58,174.079a8.919,8.919,0,0,1-5.14-8.059v-7.39a8.848,8.848,0,0,1,.638-3.318,6,6,0,1,0-11.131-4.482,20.778,20.778,0,0,0-1.507,7.8v7.39a20.961,20.961,0,0,0,12.08,18.94,6,6,0,0,0,5.06-10.881Z" style="fill:#6fe3ff"/><path d="M335,132.764a6,6,0,1,0-11.791-2.23,8.879,8.879,0,0,1-8.725,7.216h-9.415a6,6,0,0,0,0,12h9.415A20.887,20.887,0,0,0,335,132.764Z" style="fill:#6fe3ff"/></svg>
